<mxfile host="app.diagrams.net" modified="2022-10-03T15:28:24.140Z" agent="5.0 (Macintosh; Intel Mac OS X 10_15_7) AppleWebKit/537.36 (KHTML, like Gecko) Chrome/105.0.0.0 Safari/537.36" etag="lPzYlJTCmb4jaF1ssIoX" version="20.4.0" type="github">
  <diagram id="iEN4Ty_L6KHer41W5e7T" name="第 1 页">
    <mxGraphModel dx="946" dy="482" grid="1" gridSize="10" guides="1" tooltips="1" connect="1" arrows="1" fold="1" page="1" pageScale="1" pageWidth="827" pageHeight="1169" math="0" shadow="0">
      <root>
        <mxCell id="0" />
        <mxCell id="1" parent="0" />
        <mxCell id="faqCA_aV1ih4A8_iSjF0-1" value="&lt;meta charset=&quot;utf-8&quot;&gt;&lt;b id=&quot;docs-internal-guid-a95b9621-7fff-5303-7ae3-e43bde4e641c&quot; style=&quot;font-weight:normal;&quot;&gt;&lt;span style=&quot;font-size: 12pt; font-family: &amp;quot;Times New Roman&amp;quot;; color: rgb(0, 0, 0); background-color: transparent; font-weight: 400; font-style: normal; font-variant: normal; text-decoration: none; vertical-align: baseline;&quot;&gt;&lt;span style=&quot;border:none;display:inline-block;overflow:hidden;width:241px;height:371px;&quot;&gt;&lt;img style=&quot;margin-left:0px;margin-top:0px;&quot; height=&quot;371&quot; width=&quot;241&quot; src=&quot;https://lh6.googleusercontent.com/RIR36cnEEfnkRWUyEwzkLj5IVTuDpIWiZJFSBKgoeURU5AuMWw0NrDl67Dgg4HGQKyav_5vdw1RInL3UXfU_yJX2yZGf4KiCTVjhjnmjm9g-BFDy9M54nHyHD1uzJ96rDy5tzxuVoPI9vfwOun2iX4qT-5YiClb_NWbB_y02-ekVWtTwJHQxksezJQ&quot;&gt;&lt;/span&gt;&lt;/span&gt;&lt;/b&gt;" style="text;whiteSpace=wrap;html=1;" vertex="1" parent="1">
          <mxGeometry x="270" y="220" width="270" height="400" as="geometry" />
        </mxCell>
        <mxCell id="faqCA_aV1ih4A8_iSjF0-3" value="" style="rounded=0;whiteSpace=wrap;html=1;strokeColor=none;" vertex="1" parent="1">
          <mxGeometry x="280" y="517" width="220" height="63" as="geometry" />
        </mxCell>
        <mxCell id="faqCA_aV1ih4A8_iSjF0-2" value="" style="shape=image;verticalLabelPosition=bottom;labelBackgroundColor=default;verticalAlign=top;aspect=fixed;imageAspect=0;image=data:image/jpeg,UklGRnAaAABXRUJQVlA4IGQaAAAwbwCdASraAdkAPpFEnUslo6MhpPM5uLASCWdu/Fd5N+f+yY+l/PL+VJcG3b155kz7H+/9Ym3250l9I8YHgt+L8J/In6a91fjZvD9kOod8t+6/8L/Ee5f+j71fmbqF/j/88/2n28cLbDv7AXvx9a/7P+M9jP6rzP+zHsA+ZHe++lewJ/S/8l+yvvEf4nlX+svYd/Yj01/ab+43tPkKumZmZmZmZmZmZmZmZmZcz2rXtzVrt9gagLQWAH1BtOg1VVVVVVVTgk+mgp91FDPGH3rWJhT1NbKgfljEu/fXpv3I/VB99hZsda2s9YmBktOhL51iVBsg/quW6ZmZmZmZmZmZbnTgPL445jaahI/9+91m30Gl15xk4SRnf2ZViUDq/yIiIiIiIiIiH1tdE1hfzLXfGpI+Y0KzS5h0bzvYW2JCsMxxLOIeuJMwFPpq7u7u7u7K5EAXO6CIdMJHxAEuxgV/p4UHhTcpWY1f8eY01nvv5MspnsVgpaewuMT0f1oY7BLJqr5OUHWOiUuyZVlPQYbQp8pKdoOsU/RbUWRHAbKL9tOcSq7q2CEVTA/YWI7tZBiToEA0pDRPQJbUZjD7juPuIRURZnbtoxhLmU1pgzkTKp3SKeCP2idXOeCIA9JYIuOjp7Akdfok3T0ra97bxN9sneLNc1m5VWT9jNRJfyvmuCGZHMxBAMPpPhRK6evoSR0o6r6mWbT76qUrT192QfjduqqtGDdNsfv06ffwZgxZP/mAEWEFY0XLo6YyUdyUZTBJ80pvGeB97ino/uRJUlCyNqJ8KAvBXy3Z8pcluDwt671bObp/8qMLnB+sU/O7JciUbVpHHYmNCb9EINT7cnzcQ/Q23x90woe4C5Ln13qAJAg7B7ZY10D0uawKurMGalj2rUS1eES+dy5s5feG9vQNkiRqXzYmlVYug8ol6unw45i8/qTCOMF3HKOq+OmWKcFwXAd8lBq+6D2dbp78r81Tz4hzZecnlXOYbVO21KSbQBIZL3LSBwPLwtvqUF5RZ6SdoVAlXtN9GDUG8EpC9PzBAkJA7K2BZmODHM1zxhhLG06DVVVVVVVVVVVVPbujOS3THfVnpMUP12s+1TMzMzMzMzMzMzMzLtr8OzZC/E8TKez3HkqOE7Erh0D8qqqqqqqqqqqqrPMn93d3d3d3d3d3d3d3d3d3d3d3d3d3d3d3d2AAAP7/VtAAGFs4FRoEZmA1V4dVeUaHVWz1gjYipjn5bDf4nOK5zvwdEx7VBs0OaxwfDXK6F4YM4JcrpK3oJntiVVvw9BdYKppz6alZqy4fbwqZmExAZBQxWn+Cz7ufCPZhV7AQ73N/01SiAQRRX7tHgJFY4Jc+JHQynHXHXggT/SsqqbwMKIqIc1P3I0pWsrC/x8VWoreEd8IhseifZma7gra8Yi9M5wIOWub7d9lshLMkRZnDI+9vU6kMilygRGeUutsuMQGKYk70wZpLsqiF75hUNbWGDW6N7rP8aQ9ZB88rJ/8prJVz+vVc4wjGcbFXvztuztVoMLw7Tq9K+eHsnz/m++vllnZxqxMQs1KKAQ8xYfIMU/IuUfnx2i4OJfDLZIuzKHu48TdH81VoB0id1+dFQSYrREl6VnsaWik5tpypgEGa9cxr29+C/I9KrI+w28F0435Ng09fU/Hs9uD1Xj5SO+LrC4jAX2Xw2barSShxkD/irWqPpEORgvCW7dgk3sjunhy8VbnqYvE1kfQnZ8UuYly6ZQaDwguQF9yJYYapuMtRqc/2h66Xn9Z9trV/5ooveX2n3hLNn0rNxxPkWEUGqmAoKPflzWQhS8AmVxspdhQMvSJA3diBocWvpg0eqVu1M8mIRgpX/ZRBhzSfkivToHPPNb++ik3sBhF+8PLUM8KaKYvpjQEU5RcFjwRe3lX/ny1P9NRDs4oKrRfmitBJaxV8eprJSc82VdF3in7SKq1SGgkvh8/GMidsCMIx95lQNfW6kF59pSwiLZ1+r4DwCRNIrKuOALu17Xa3u6l403f5sDn2GM9syMgAOdUXKaZ0zQ26nRL0GPPXfZf3WIjOAqcrrlTKS3uPBrrv9wmObuVOGN99y1jlkcgQFfRDuT3aKljXuP+3SVUrjEAAKJqMkIHl9rE5Q8JJ4pvKH0y6DP9/rfZ/uMd21NgdUjjDdc0+/gQmuIPWzm0eD3scpwRqCr5y46PpoaDSrSMY2gmDH7sS9kR3FCMYwtXoSwYklmqwzSEoid46T8mN4zo5iUegdfhX/gOCEDyM2aobOwMFDEqSOhhU1REKPTMo+9o1w4o/UBSHbRylYJcZogLWQ/r7L2AG8wzWUmvr0vbISBzH1zVRNGxJpxwcI4YhRBbNyuW65XU91Y9evazI/kliOoIqqYKFzteJnHmpIwcaQJ3ut4V+2vrjw3ZDO2N2j3l6MNLZSynrQp118zG5foP8NkPpKEsNitK1oo3z+9sJQ4i5iL8+jSzHn0DfW7jrU+1HUStigEmxGGDebhejLjMt0K/UkQAI9Td7Q4DVwQ3gIFxBpGR7Zp2Adn/MPyhXzaG69eReyDBfC8uFZs3yHGocdTxydktfiS9n6emGNYs+Md5/v6GQnQbufKmleRZIKuIz2Lj4ITrJj0az43sTzEcqG0X4lZ/5XEGgXoMn+xO2CH1p/4n/2onmGvkrub35tCs3wcjgAUo5aF+F7jq5ud8gY0MFEWL05baK/QiEnT8VuIYG7gnQhejHM4L7pd6n1+43GOvMe/C9Xrn9N/wfwudgUoYRUwZcqDwt8Qb/BbM051rAF+9xk4JCFgizx/isNrYL18GAAh8zJcnRggPg5anx7L+Ojz/sZHQWxWlwL0qMTwidNyStppUqzax7JwSL5a0yiNFBm1vZl8wnGQ68/kKQcXQ46NKG/XJDqmi/udYu8numPK3X06rvjvisC+CdM7H1xVmyG4z2N/sIwYHQGP5TV9EFScuiEIdppeg4W/eczdtMEGjP7MGE1j6x+XteWgqNqKvxfiz15OdBUpDEaAHpcC+ACBkaXrfRVsX1LkUhpnvA/rEL4zoCMoo7EJ2sTmJli5T2OsY5I75tv2Kga7xi/9jpJWX2JpIUbDwztA5OjHHe979lXDpINIuc66fQ9hzV9DQ+sUUaLCPbfUL2L0tT2v7oJA2IMQNsExUEO0yY5Vk2YD2vEdp8QONwqGVGyduTQcNZbDLHAbIdQQWZvrJSD9tKIPwx9B4DkZY418k54vPbjpL3b0pi1hytDtWSvfuxtE64L740XQ2frC6PVts7h12nqBYTucgcEEnUshZ56CZKRCWRyyPnnSnyzrhaXKrtARC0PUEFXLsKEkesok5WnRWIarGZjiav5WNn38cpfUk0poPv1U3sn4j6xXA4sg0OreB1wHlKCE3qz0wyEgQJmGVbk0g4O6v13bcpX3i/XUWsspsgxn60kLmNK/Ct15hhT/AkzPO1s55nO9acyCC1pGEdUUw9Vqk3rl/7rB07hhAt/JVUxd7ejhgp/LMyqOxMpHoFCTYLBT8YRGIJp31S01IHcpwPLXZlKtRgfvgJZBuWypIT+rB3M1FnzCjx6ndKn30/oY8QpNim6pev9ZcI+n+9fDUhpzSuA2mviw9f1E0oOwiPnb3Cih4teu6Bu3256L8jaSa4p6QASooM8AehMKB/e94bQmg0kG9JRoRRk+NPAkkHtA/XchJs1hKpgwGxnHGcuOBYm+i2HPa4CZXtcMRvCaBLrnTuzVnPJcNeKqplX+He6SKtylfcBOQiEQJ2ClQCM9/AgLIUWv0MZ9+loXYXYHzddvRa+Q2QqgFtaUmfwsGbBW0Fo0T26vqfmO4KOYJSb8NrobRxQmHCmxBGWTQ4T52C3MKpjzeLOtAt0EtlIkowpX6K6jmiwuUqOFZ1fsYqNKONVap5GUsZAG38X6OOMadDhMiCmIrqPKI5gbLDl+QKF2fmpX5xtmP7pMk9ZLz/PMO7UDk9oEIThBr8Z4ZDDLBU+B2dXDYzuR9DotypBIK/oHW/Odhz+daM1e5IYLnwZ7SOFe3au9iFE1nMjlIvCY+VDxT91XGyX+t8bhxwRCqmIV0+foNWy+O1eN0vGCKYCa4fgRwQHRpCVmtY6tbRzAMj7wNxYmGSBuYY39uYD9B5jDp45tt76HjWGUkKUjAcAtUcvu+XdQ/fINLOJLzINxOnsMUxNioV7MMizdotereFoMn+WL5OZ0F+5slsvCw1cF7PZ0b7dLmCthZpkJGeqIZ2LMtkNK5+usydFMZRuGq58AZleTR+H5/btd+dnxANUfGFCXmc34PXytqYF3R8RBsajM6S2MsZqnRisH9CVWWk5kZ4kINH7Pob8ate7sZ+D1g9zwgU1R8Nqf98AUkTSh/CyhgH9ytp7AJMFWjIafrIHlUO3MXp8UWUpjABbq8Q7WbspMtn6/FNwLTHKBOdtDqDCn4tiVeloQ/cCgBoMInEZvsEFacJWtZAmnn2qFVsd8Gbnc/F6s6Qaiz6tZXTXZDuF5HN2HWTlK0yPOj3aYn8LAlUr2HM1Rw7IFOfGW7OLesuEtt0vIoHi1ZTJnFKEgV5aQNZ6FEscfkmbHJNGGwtYrQ6PcwVsSh5KrjrkjZ2uIAQ4f9uAGzMZk+/5tUcfdeRAcB4SlNbTp3L3dRdI6psV9Ta+WLveyBYDuAdP2zutFh/f6TEfAgLSrDBYeNzCn/T85deEbbflKitxc8Zu+U9Lz3FQzbPV+U07HVv0DoGjmiaVq/N9wmLdpkzV1DmQbhpZ6O9lTlb+PZayNG+rqb5UyyBvkDjZzC1/CUWp36JzY9pLFeKMd0y+I+ivPirnCH4PE0SBtyq617SY5TdTPI2QTcjiioWka5QZ12FPIGVSlS5TgyRP4hz9n085J5kFzxR3VDOZl99o1ELXyOFeYMcYtjyo3emH7PDrrbxI1uKWCQe/8BEP8IH0P5QWKy/PCqcT49tDkd1riZkViJweXLQd8JETet6XPh3TJz2TlGi5zDzmc/M9N9Vht6fpJpLve3mdel/VN8x9qwDXdqulbl3H6zjSgsbSdz1C82OM3kobq1Z020dGPi7m4M3nR/5we7GQ7ldgLBIUkIV/xcDNusUOlPKZhBqh8qYZtAucq2H3vKQ7DphWwYZwqx1Rfuq5qEKDwFuH2W788Ym94caSuM0n9MOuwJFxnQTLMB1S/jshbly4x6TA+/ccnK4tt3vObH4cWpVfJbDzC3E1nyLAyWyzPv7TGk0csSN7qUOkZqrID1aOpT8naIa9ajisDRZDFlOkEk9mf404VKlKa5VN5oRxGLpxHViklRbm9gvtahtut2tvWsCxGn4gzXT+cfeOECuoJRpDur+x+AoLxhUyXGeHFRF1TGjnkj5yJ6hfnJYMgSNq1KzWb87qq7jhoGaoG6AYZ80nlCmpiL/nvqDy7CK/xhuydvTEDxy2PrStiZv++1RyKwhFZNV5rPijtmcmM5t1zJDClHhpfmzPpwGvoBzIEjYCEt+Z6WImuBtZiT0c0UCDJXQXZDH6CQHYoAvTdJCufqDTV30eDglQWTdmXt4fhdXu9byP2f0jTHougjp4PcqQzj7EDQaeaDiWED+LOxYnczS5mfnK6AvafFIOc7plVZclLx+uZO7pPxkPWXVmltPCMwmvh5MvPBflC/k5hDLJ2iPFCty5DTNW6563gxe36vmRMhhZDxUJwlMGrPO8GDm2livSr2KjJEHFyJSi0yILsd4qusAYOtQ7nWOk1FQPxGTbWota+wxLUhRSmRL2Is2G4d8wdBpw6YukhLeL99vdjHQqkCkzAHz5355SXlxqHK/luyEhWXNeD8gdfQeXAH41OidG+IEc32pZCAj3tOifoEIEHoopxLb29qqS9tZCW0Xny2z5tsMy8lDVlLNEC7I3shOqugi6Q1AwNi+Sp4uF6VmBo4QymsklGixH3ymmAq3mQd0gCwIIbCMWhI95up5MZHt93Fkz/0Pnogl4x2zJDuFwTWqpug1mmusNvQdL4pabAhQHOdspv3Ympp1XHx+731r3q/MT/Q4t4pJ/53WYjPgzXgcQCADZak5cSnTOH1M1bBZiyjhX+wprpGFlh9UChHVu67+cwflaT3G3qAuqqxNH5vRSfNFBIQHcquhAj2nDij5rGZNwTN686X9A9tEyCUi11G0P52YvQejdZCGCy1c/wElJSNLD4/vgQQb6rQDs50npUKSbfAeI9nY6YG0dqHuJWXRYfXlv79T1na6cf//56stsoV/KDARG2O1t/Z02Y4ETuOLKkUvkSNNA0FAFXsCY0EpX0h5ZrBd1IbK9BgnP7ysPQrKJT7qja1oMzL9/4kOLSfeAHnKqIrDPLLxfuKYTq7ShIKorx3E0+zPwNS9yTZ6ZwN993aFofHG0QV/fopGLq/3MmhHiDAbA3VVSHlvqnJx28XtGsyG61+Qf1htpJ4BQIGRRmpF9eswmYu5aYIdeFiX0pZXzQacE6Di5hWy2x14ui+/wJZM8L7RnssRTMvkkQqY0uw6MtA+T+YyXvdPNf3Z29p2wSccmYwQ5WQ6zfWLoQXE4SPxrz6Qr1e2B9bmvA9JHWlIeM9GYKDzRnvwAxm19QcZSlsAjxi6VZFXilpyw5VDxTnlQZ6BI4V86k0jW0Ipy7eQ+bsN4ZM6RBMYGKnmf3ItukHvsLLjqa8x9WKIwprnIZvZTz8NoOld6rsZz8cFFxZ1PE9cVzIvKZ9owrb0lYJy46bz0QCMUiBsLxYyfHgiiPOwbWwSfKLC4UQ/Ebxi4B5JL7Y1hIeasw8kOEEGaZkHPc09dhgScNL2a0co2Iiq/0AIp61W/Y8pJ4s3weTJrxVQRWYp7aoGoz5K1tAMXbcGaxtFHOg9gdo5Dd6lZhAKQmYvZ/8d3F5jT3J4ZecKfo/ZDxgBk6ULF1mkFa0iPkmh9FjqlIikj2t3L9/JUWVCie+7g8dmh1rbVF3t56xzrZ96UUTgpHrjBBZ+dg9tRO1xOabj4cffulosdy9+1KKiEZnI2WKNgFwmD8t1Q7nEOZyOx7AP0MlxDWNR6NIRpd4vbl/zxi0eE4hGsstbuHZVIuUVMwpYmXJryoUjnrQc6yGcnpFaDlVu2aVp/gtelOWwp0M2SYi5jgL+0UC5trAwxgMVzkRyVaRgp3yEE8SRSI0E9yz6WsvT/va02F+0q1mjFE7nbYAm+6oDyOopeRo6DYfvemgEZRQe1X/fwll/yfl9uajSgFw4VYMgv4Hb9HDbBaW14C2XQAB17JzYCT4eCEHrI/pvptF7Sj3lBTtnzLSpoerIhLlCPcHR3/YCfyXBTSQPOkAT724hvek2/9a9DWxTQGBFSvZFSiLFv8LObGfJ7I61v57ObV9+friP0F0MEgxf/x2RUB9JzRdUr5cKo3nLcVzy9tzQzgagbMfgvRfiNKF+lmyyEUYT60loZ98h4TDFyEmaJ2t5A1caWRx/4kl5+Tiih8CQ91MQlDzEyZKD9VMuutUNkA/sMKFQfLQfpBbUMBrrriRxllpqNvKRa3q5AcYGCjChMQPp1XgnXRKEYolsU9Molf8diLeRPu4IIeg4+7tXoTIGtDqfcgj19zASosoDWINUJqHxfyQWrxhBdD2p2/CBzPjYgZrocvrMev/pITb2D5nSfLRzQFxIT1CmOVFdSL8ae4Pb1wzO2d3QWzbVY0jPcVATLj7/WEnWSc4g3vXLzBqWKi+uWvK9Q7b9qolfy2NzJsEjhfmzabpnG9fLsQeKaCXTpjb0oUIMIekFpButSnIPdFeifv+lCxrSAOwxdVXgLkrkVEMU9ABVw5JVLpATeCRUsXr2dfJZTli3V1WI80raRvFCYf96pmXXkgEn0nOV9Ruygc3j9HDaOs9J1Lv5bu8WUK8yIexTECruNym+Sy22u7gV9q0cYe1qloxEXm5JbbtH5DW5In8fIpkXuHhiBY5rys9gbUBHoCsT9gm9nyfYmFUc06tsrOaNTgRrgqBk0xh6BWFOBE3U+b+xZlkjHeqZruwYrQbXG1el/vA0+RbrbsP1HkdMuy2DxSjI5h51aY1iNTKcVF5JoiUq8Zg/aS8sZ9+tI6JTI4gUdM6yfsn5AqzQnF4NlXgwgLJu2xoWtwPB/WZP0t/pyyR3GNUdWNGgmksHQ/mYglJN/JKeojkxVHeojK79OXmoERGLTCYp3FGAkX+Lg8drrn9DxTLE7kPwN/7DhvqYZ9BJC8SoFGZVesOMF/79v3IaG9BoyoekGBkVgCl3ZxWfeZu2h7No0OkBzazGCKZuZfqXSF5u/ZnJUbxGBpz9WB1oAQM9Pfd5vqnRAAACE+FAN6x1JEcaJQOfwAR9NGGyDB3OHUH+9DOo3tg1uW5/n0MmJTSfBPFNpqc6KEU+1kf9RABc1aRyUed2ezxFyNQ7Xin7xXppcin4+8n4nKqZGqT8WfA5sZwes3haa/skzhvelorxKI/1hrIIabwAzaoqLKZhllzYzgSoO8Z38khgsJqShhokttUgLmX/2bOm1u8JuPtzlnT1Mr/7eW4Fr4vNahO5EsrUQGe2GzyglF4ZuHwr1ltoXxkNOdtCKrnsej/HXQpjVs1imw+GGweAAEkMdl0y/3OAgXH4pt/xZ5/E7lPMd0dRjBrKM4a496xXMdlItfDz7RuzoRfccv72E40gKQ3Syd4slL4/f0uVpa5UbvyV+6hIhpEJD+iu+6BMJ/0/vd2CaZxvWuejyzV9RRNEwkf2txRt+v88k1CG6AG7VPZWPNrRDnWvy6Ft9PjEvxrP24nycTUyEefTFvL1NuuZw9eCDpfRYBuIFIx77nT96KrTODGCCWWAU//zrO7wAADL4Py0Elw9dG1U+LWOVPKGdqy1WogFjwRiDZSyHu0b/mjwWXPK5JHuuiztcY+aa+mjeTtfdA2V9j4imkrKItvI+NqD3+vgIjd4Fcsu7Tk21Sr0lUKre/oIKHAtlLvzrXZ/ESmSuiu4xriK6VmbpS5ykgEehwoy2qd2zqxvhFlQF+TBg78CNYBokgCmb6WJuTrXMFmRMDboK82N44AAAAAAAAA=;" vertex="1" parent="1">
          <mxGeometry x="280" y="531" width="76.45" height="35" as="geometry" />
        </mxCell>
        <mxCell id="faqCA_aV1ih4A8_iSjF0-4" value="" style="shape=image;verticalLabelPosition=bottom;labelBackgroundColor=default;verticalAlign=top;aspect=fixed;imageAspect=0;image=data:image/webp,UklGRj4xAABXRUJQVlA4WAoAAAAQAAAACQEAawEAQUxQSDcAAAABH6AgbQPGv+P92YiIOB6oiSRFAu6N8K8BpC75RPR/Arr0001/xwAf/+E//If/yA/+8wF2l34CAFZQOCDgMAAAcJUAnQEqCgFsAQAAACWM64kmTb8jrWCrVye+tf1j8We9kqR1H8Qf6R/m/838w1bftX3e/Y3/Ae8B2XxmPXT4l+kf2n+2f3n+5f+D3sPat+rf+h7gP8E/iX9A/s39p/vP9q/8fwgdJb+c/zb++f2/7+fu4/kv8r/gHuV/uf9A/qvuAfzz+YfPD4gv7QewB/Nf6r6t3+F/3n+Y/eP6Mv11/2/+I/df6C/5L/Q/vE/f//jfgB6AHoAfvD3TH+a/Gb3w/E/1H/C/jr/b/9l/hPQt9G/fPxh/br/Fff1cP/E/t/Fn9ifqf9Z/v39x/v3+3/yH2V+6Hwj9Vv5G/AF+H/xX+m/1X9Yv7j/1P8d1y7IHwC+wHzf+0f4L9pf73/4P857U38n+UnvV9d/8B+XX0AfzH+af4b+0/rl/dP+V7OXjsUAv5p/UP8T/jf2I/w///+17+J/5v+L/1X/A/2X//99H51/df9n/if9B/s/9B/8f+h+g/8g/mv+E/uf+O/03+H//H+t+7n2Oft/7If69f8JNPmTxptExptEw8o1lt6irJ402iWF9DYb/Xk+Of/Mv4XhObo1/vHPvQ2ahSbPLkk02OOz5cpo9OMmV7P2bQfJuqGy4iYG8bbOfIvIxjw0H4KB4QcLYu7zVkO0RDsZVQiv/wJ5cIfyqrfymut/9Qvg1ExDm8yLBQVYUGWM6svPju81zA8gcrAAejw5qTcjmQrs4x0xN03WyqjJL+nklx+Vtb/gPKAbEXQGv0Ee0qqZvUZD/6fRA5P0fKqUF2K4Y+6cJk8vZME51MTX+597SCDwlh3Glib2K+7FABi9tPfsjZROf/M4Ye743Vu2cJJSAsFqb8gBtLAuQ1Fk3TQJorVH7A5d7eBiCGLSO8B/xtQgSrqjlYwIRTlkLCT7/ZJz+iK2GNi1oVYCk5tz1W21lEOtqLOdCvE7olS22lKQnbwewmublS3munhgtuSe/3jkMtOvYNF2WyQVYX88WAgNi2URQJCo2AR8utK4kVUHduiIbKy+tPOIEAmJ1rDQkKmE2gRUnQzKnTkVZ9UiB5fufmMqhtlXL5CjxdYzjTXMgOpLXBHXxIHCX+AY1Cn4ngjTVajRS2eE5IOZw8adIBi1Ogz8WYKgqUPxand70IdN843HdGDIR84eUV9xCSwEwjV0IPO/b8XqoDHIlbI2JxQ9d2eWvT5k8abRMaXzpLzYFAiZmk4pIQ1XbYsS+SvRqfuUjjLt4cRHvh2Gw1fUrvpFGju9W5PCyRH7RTWx1tujBYqvxn/Y2nh9cPHf4GVkTicU3zKHOVEghJc7TUy+kQoodZg21MO+e5Dp/xCOSxjQyUor1SD9lzOhyJVW4pKzlIGeqziZ1ujRhCKEn0ohU6FdxdawSCAufOs1wTjnafxRf+esoNnYuSqaL03f+HCeNxtJ+gVW0oyPehS7RCK3M546zS8n3isSe1V/skDfgYHvTUof6fQ2zpbBO88PuDqP8LGO0PhpjIM8NWKCUuG0Y9e/iRd5xxTtc/C618stYsLSEnDcufBIUVeJPeXfFc4uJU8abPvNnrflQu1o+WvrcOK4BDommn95i61VevY20a55AQKzJ402iY02bgAD+//e3PAAAFFXLKqYOKKaOJmsbBrjhIk9ZJ9Ik9Ms1U8Qro+kuNsD8fCJmCutUkfThFsYNyVTpHsov+iuwiJbcd2K0AVzXOiX7FsVWhCa+cLbfUpxAxaAwQAilxKAzmilqvHixjhKcUF/DamKgVIhYlse1PwOhWhSSwfMgDmKgQLLmtLshJ08/i5/xMRisjHdKlIPN/baX50PTfyOHjxXj24s2a3GaUD8YwcQiz06vr1yFHsln/ZrxjyCKxOM8BDPI3WBWLFUV8VTMO2uUS2udTcU/J9/85Fu0L6XRpknJnEITQYpGNWiOgi7NaLGCA5ZCfO4krH+edq8d2K9VGeQ3XwaMkqMbzKiJV1PjrMOz6TYdN5JYnzLM7pN5NH0gPSG/f/a5Jw7huJMzdgVer6YunNXgG2KlztqyDwaMO+3lMB1IKkOh9ha6fYKkSmyMX4ypUZTsI/0QpcaF1jJIhMZtLMPcW4IinJYHZU2SwNdT1H/ClImFjsTG/7MlU6TR/pnMrsaegrJxg8f3pX/mfavBlMArd5Nkd06YSq1WAJEKYzCLFT8LNsbogi8Z1EVfcWw8JqO7ob9wUXkCRXtmX/8fU7/O66J+MGjUstrefc3c/+ZReSWnXAEQquI9T4ZJrbo5V54Npf6JNi2yQCohtZ4AnnolMqCzOyWm/Z3H5PIEpgCYp0RtSljeQNgexjEcGgoV1rrTnZ5ptPosWTeqrlFFabhD4DYVNfnHH4nM1wpjvQjZdKGPfGPtP2ffTpOrUSPhewDiESg1jExuVY0yTPSlwct1rS+v3cFI9fWS6qccocmgaJ4uZMXamnqeiefJ+T/s10niivZVPTbGJS1AlY8R5z96TRY5lVnOxwMKBXFDI5vXNhl2f+E0fl06WOGX9YB6X21goc9wQ40GPmqXDrJhg7jmMDxYwIYhPDKtsmWGuLafVUn4sb0dBMVfeJdyEFYXnVgG9JzKhCjSFK42rsLu6ZbX17WM2gS5nH3/oCSps4INmY+zOYppRz0nfOM2f2F/cs3wPwTp9S2lOsCs0BaSnnTRQjPeG1WWoS+PXkXds9vXuHU7sXPIluQ7F56kF07PMPHs/G230maxxaB33FenqzjuUQBgTfDU7kXa7Gx2H2NS7O3x585np2DGuWE78KxbCqt48N4LPLZdv5MmTJ/BEbi7B5CP/woOGPKX5z9soUhnFus06CuvhS465tFbf2eZixJAyq8OUxlXF+jPH06SD2VUTss4DG5S2Q6uAjl1WBrLFiQuzezcwLOjateYxw+/M46TF3wzhv9+39NnAq/6Oi9jwkchYRtEetqTj9aKGMdFw37wFA7hdfZpHxZfS9KSNTzAGrN3OrsF6+Inx6rt91ecm3ugNlyRDXKCwX3MCbNC5ZQ19545VnhahMUsS6yrDKkl29df0ccbQVnH1gc/BsfOU/lerlinkf5g25hxdS5TE/PsM2WnSLUEHdKcHX+xVEeFOV1DpsVgXy6djBFYIhJpPce/EQ0xuzSnIxf6/o2Bp2PxHgzeAUwovAqNxU9Y3rYIGFdMLPoX9SEMRZChtYmiQKOQr18vhwwF3iaTkEXnRdnNBiTRKX1kXUEvebkM+8M8O9sZhnjDS4t3xQrYf9NhH/dXM9dRSrjWqhbrJhjzoy4cunRpapfSc87snmts3n5PfrXHzrm/DscfrHHKvb2CypZcRENyo8O7ML5q7CglOs2AzLccl4y8KANvMhahK3kpYE2WEXojUT7H/Vcr0cY43Vh5eQSLu5EBReN9cDt9cDp/tnvOLxLwD7wBKM5KBGcIREb9f9Dqy63YK9PVIH+VIDcsBdVGpG8VY8Wq2rx+LkjiswrFk+74ynQXYkxcxEn6BPaqXRzjHaPdxkwisovoB/5g8WSwy+rjf74DYugfs+KfK9NoYu8EX4dOD0Ckl/ZOpih+9LVP0KF9lcMtz4Gbf343DWOcZY3pfBAA766fj8Mx+vw4Dd97CdaHMKGz1x0hv/fUo8o0flwJpDSP0t9sJj0CASaxTw1eGLHRdg6AnIipsianCyE/oplOZDCStNf9uzoR9wuvlkBKfFaDLJ0Npf9d5d3s7ctyR/Kv5WbtF58DrODaU0Mn7dcpGnfIv8hZr9n1SAHHR1NOcbcxTEFcR7cPYHZJcryzYuUGtfi5Vfc1tCrok6LMAeeeHb47e4TAor/JBJMlYXOeUgVqP7eq4Wxt39Z5e4JoJ2rIZtCiJjn5dgnMKw/cbcfMDS51SxqcEZuj62emfGCszzOG1wivOWSxYJNs/uLUC2Jwk5Hw2cW/pA0yJtZ0n9yIS2j9iaurrYwZdBzLaIIGxrHYRIiDmahxMK58dulGqNVYAn+UxTYADuLrpR7dmvocYIu4VQGMvw8oAAAQgApi6IPPUszNMkxGHjboB7QBlcH+MTe5lyQf0S+hMgMRQLlbP3H27o36/dquinPUipiR7AxxtgyKVLEpDPYi9VzblS3MkltbF5JcNr7bFvHbgM0OFlvlcn68fJcoL2VgDzlw1kq8kMIRhGFXS9AQPA6xRdoi9X2nYxbQXp6w22l4Uwo4l38ZaSUF7lvrzZFZf7xlQ7zUn/6tQ/c620acRR/xf6FjNofKSJuJyfsTCbUL0476PuPd+Kjhp2CS9oUemO4hmk9lOIVtQFm6JhKWlNE+Yixy1ICGO7bH7I17Y/hSmMabJQO11aBhmGJK9v9OLApn33NxRIxv7iYxoeGnOx6Z9usRtNYT7m99NN6ROhUFWkiA1CpwKS9e5mNXDmzPB+UMUQWdgv8xaJcvDPdj1vvUDEssvsbiIiFENakJtedKdEQX779gD28ZKIe8x8pi/N4UjC8tXYTIEwgM9DauZblATRjHoQcJQMkt6Cn5lJ4a6puDcO3lxLu7T2/4LNJOY+YEAEKsdHvEJC8VSzJmKt3GtJB+vQzuSZuy2H0psFubGhEV1bZ+bAO2JcVxK/76DTcwEtymPPkzMUz0jhQM+z4Z4Yb2x//h1D7WuWfT1SClw2bYhJOSJJexCzmWWlHhKf9uBZmQ04H8xFuqSayRvT8scRXMvELHakHv84RvntdaZfoQn03Agw4a/DKJQn4OcB9lImxHhQwgz+V3yJwZD3xaXGFDaWZKYeuNgRIXpYm6fk0HkZqDC0FbAmHauDU2QotN/Ce8DQLSYI6kzUJXFInJqILv/12n61wbyzUdlbbkZT6IyD6DFYvhl8S/u/1IKVhRD3LEpx8W2zmOT/5mnV8R1Ut4U5Wu6AuvVZxjNk21dHTJR81dIXJLvJRQJK3h5jIfCJRSaxQ8C2K9lsTvBaChBdoH8jIJRt6E6aqEqH1FtiFV+HRh5+xMrdTmW0F0GFiQk7KS5HiWrk0MchIYASqpyICaShlpXJTPukdUBEidvoiNRBpc5C9IXOl3NeiK3Li1fjqMBu4ssknYPMPwjTIinW7yuKdwJY5DeUJTjf3XXm7g8otrlbFR+nAY0cYcolw42rkvgnQG+L0vhztHCk/ui//g1t1sPHmL+fXh++GQrF6TU1a8XSXhhBwoAO9RjbDh/tmimDtNiNUj6ga8HOsEX5DmeO/hreEUWQtb/XYBihCCOK9um8F6cq1K4KXmnhmQJHJZw518zJ8YI4nGp9jrYsUQ/oWpReW8GSFnhHlPM44AjqyUKNgZRF1AI3+Wjfi9X3Rzj2HmetnYLJZFa2J3DseLhJ3OOjZbxmDLgFxj0tRrlcXLL9lCkYvRWwNm2XuOs+F9UVsyNK27KJ8NfD7MK/jCPHSwkXdbxd5AjAS9jTzvFuUgs/rBRBLc7Kg/e9BPIIQ3jpTvhkaVnuC0WtGUqnGc5lgXEIhWjZnusrtva6v7Mj3I054SjTtEOLfui8XRI/2yR6NUiRAwZnFmWMseXWVz0KqSuY2iRcepJIbM3nefz34OCHYNDIgtLkswGGe0EjJ/K+RUsbIfgUgQPhD5QwRrm4lKkd1S4homxgyggiIo4tBtL3KW3xZrBAdGo4B0MwKy/sCHP2mnhUKwEfy47E+0iJvxdQ5Swnx52G4m/GBpAVBoGst8HIurs13vpHVdH3iJzRfn8xlPVAAswV8yzcGht982NGahnoEpgSYFmNqLgJUh7UjNFQVUK97fJyTp3+LPuIPBvDApyNY5FMzBsfcd+tS2+145NSf2S8G2wx7wRTtbK2LEAG+qetLRrPtMy/gmQ6ItCYepx+ZJolWAko7P0DHU6PSNiy1P7zzXT28/1k+5TB5SYzv9kYWX845Os0yN0woRrsB0XuS9STIu7S9pENVRXluQpExNdJREzbZcRlnZXxtKJPiebPz0lbIwdhUxx117UzVV7Y+1qkBGG9/NzZrIq781AC+TGz/QlSs5a1Co3EQjmgqJE1ZjAnY3dpx8cUEdKNNY9pGcFXermxMnaFeex2kOGg/uVNIl68kbFVFh0s8tthzqG9d3G5wuH+NMQq0a85X+AvcUY0kt8k/LyuZCUNfWkG473eQn6TNYwLmOxnOCbSulEK8q9QNtE0crlgqLgUnrbvicU1VZIhFWY4ibU7PncULtl9Ub+rJGwb6UzcMqZvNRUpHsQYC9OSAp+dQ/8ISlGBo/TbGX1994Sb+4dMr/Z95DPQt7SHjVig8x8QQRqVrlkOJM1L2OHt3E1/MwMliss5vXxdV5WhRbWdwcPa8NaLd7KVpatyDR6und8m2fFYo2HVhUwuK6M2DczMqtXE+06GF+PkCHAug4X7SW0nov31DRcAmfe6wKZOtKzE0zs70btstJwnMTL9KpBTnxzvCF37QZfqIMX7UM6OeaihXYulu3ro4/GJFdNnscO4GLCd8I0Bmu/SMDZuY3Aw1azVdzL3hUXy9UiK9aiGCmdyP/Ok1+4KlYeQ+B6MLlWNAcj4QZEI0KgAIAGMIatC0eVQBBLGEJBQNa7nnmQMnQuqbzb0GEDHnF6SC0GrCF7aj4HIqjTb3EbmTsQbSLnHen1ESWW+F/zhEdQRy8K74fJMzc+X50BNzcGn2/u9AdgNP4r2NY16tAvydLIIwi/eYwaR2o1oNiAtC7JGazxkoiE6JW4i1l+x8iDKMNKme/aqRupRuooUWXGR7JP5PJSW35dKJ9NZe2BGr/C268zc2zcBM1e01dB39eKxLLKclAkfLR9HhYHJYwlPiNwdRalhIknOadM1Z0gdpj8f3fbYR9cj2+dS126L/Pz41sN3WeCiEvKoFsSXy5IEzTYxG2i34sl3MbuqhMabuaVdv8PsK6HPVDFhq+MfRRoAc5dFFXrgEG7I8uckD/KvujH6Um4V4RStN0o8MFVwyCT7q+wNmN7UVQfCBiEiDq5vjKq73PSwM2jsiQQpK5swgVLv5cxL5C06u10qOY9YJ960tNOYLMJ9twQ6nh7JgBzKK4Dln3rY8lY6V/Bfv5oICVV16hchnDJXTr/iRHLJwQZMkk5B6wjMBvJgjaU5IqSxUyi9GaM7JTVi0yM3Sieb8qJ7W96ukTctawHCAAblJghh7nmPgoLSFiO3acT/WOlBw5QsjdfSYNtPUR4at/CT7iOhBQ+rXwmXedov0GSNd4IsYClFYcA9eyufo4z5WhlMbL6j5+/V1wYo1dD/Doagcnyww8pEriKkllAy6aIGlx/XnDR5133Apv7FC0+YBaiMeq/IsjUHK6ionbdu7Rt71WvkJOu2w45+jCEI+EofqJ7lnu4H3PWWsXaUNEp3xO5RxVKWB26P9eawZJde2+OmKqSoj++XBx8XDPelKlgAON56EXNKPKK+2XysCmlJg6nmpWkgOL5tv00/64sSetmpyFkSlnJnHdt5ekNtR1lLii635KR9JqeX3ThBVYGDRk5eq9nRW57NlDY7HOMlkNN1bcW9mT5iVsA8UfaL2ckOSIOdvtAoJ4ThZkX0xIXed4qP1bDk68WPNy816GVWcPjfjLn+rdR2CJXo0jTOHshenVH+JHse4ieUMZkVIa4zLP11kx+6YAwh8QNkjkYyOG8Vh40IKHpXWx1EK92qSJrpdni5rwY9gg8Ybe7mXH0RRH1HFZoBv/p/bOhgWRbeGSlZ38FNv7MZVvIBciHdyV1wNLr6G/+JGlzHrsHVOOhDST6IUCIu6F4/A8Mou8BTrWZO6aRWrvgLzXFj8koWYx/F0/gJRgM3AvAeXOdtOVi1a+JmXaO/CDS0LD/U/RIKUD6XqIXRfEEJe48G/e6BXBNwV303i76zuSf8ijZj5y/wVie60E5z2G8IgtichYhjyXOebc+k/gWk4reXyQQve8ibBRMonRyS5/gX68Wkl3rnCCdItvjzkBn7pXzU33TEX3rTKInXTooC2QivU0Raqkdx0dA29aSMgeeDKzXLsSyHaZ/jfCm+4oXCE65sCYm7EhNfcD/1zCWg6FvILmCVPwHU+DOeXmfeSXoaImEGoH08TXiqUIl2e3mAZZkLI+KSE+B+AP7V67MgiPHgL8DAP6CKt4lFyrO8Dogh6QXCVpnXYhI8CG0RX8FnaCyRPVFsa/6tn5w34R0MBEknw33BAQxSCCRwAmAN++91yxPr9qlrXAWvJrQdqsgDl+CcJVB+uEQqJkXJ9erYtG33joeQ6yBu6zq6BKFiA6Fmi91Sugm0ZoIq+BPHjKkguN/piS0Wy5HIHOZPezClMbI0zjqOeTllUIhQ54MDbzZd0pwEoWnuk9oe/mOuHBHNtSpIYoYQ42OMDAdA7P1uBh3+mXwBpjqrbZOog9RAbn89Xkka9phZj6zwocRJdDLDXM1T25CooXTW6Q2UE5g252nKvfShaeZCIU94FpaKZcIhyjrjb83ZcFVZ+Xfgl1gRTaDNNjNtveep4n4+XMaSp+tHmh7DZhKeLojplT4R87Sa+kyux3viNfC2k9kkqxvxPkQShAW/gg5hU3dfgu++OVv5JI6ABipH1wzYfRgn65jWC0kSxoGO1jBdJcz9sBQczgWH+FKHUvaS3FytRziekSWXGJDIjrJ+NmTNLYrTF20G1lyowzUVLy4RrePwX3Sr4C8yvQmgy+33HaTNENeExWGCiE8ZWSGDfUlsI467EjUEcPfnJqnc78WVwOnqxmc4WZku/QSwbUi2SPpSodSMsZuMkGBjDgiCiYvzvR5PbNBvnp4WaZjzG+nr+MKqCfXF1/Qsc0AjzVbIMy4mXPu/UuH0fwCsUjtxgYovvcHNhKF3I5KQH6g7muckxc1Kfpy2/rufnOGr7Ck/ztI+behtDX3yAl9zLSt+YQPc73D8VPdunbYMkVwJwW6ifx/L/8QGwS0yftp3brnZQgl75alWQAA6F8c63o8Ll2f9SkEOmyH6aemu1SyFrLSIxLbxcxPS8CWc2BMItPQ5DNm4zMyS7LNM3Rah4k2wBGgELKdsLIFNBvZj1qVvTZMMIj3+KR9/k7w2L6SejzkoQzll84jeolGL8ak/Ujz03pQGWPgy87opjDgr9FYbcM1vO7qzsRAm+92fh5SECyzZu4Txf5aHM+VSVxc5LqvLchmEMEDZCMmAt2i+e8/8dZ1COXd+w4l87LWRoNrXCkLJmxAJLIKGDL+zOdyNMNMc027eI1YCTceMEJKvuuW2kY1CgzoP1bIOsoHR4Dw98D6yOp1KaH4TGbB5ic1TVGqpTbfhyCJpsHn9eONPNIeO+Ptku7CJIchbCh74/oCqaeyDMQWI5Ldm5IyeaTCc2iOrgbgMDEJOQFUSFs0eyRvkPjBQgU4Pdff+FK6pyDcobXGu7SQumULPq7nRdE2zYOlrZl/YHQprbG13KXmNWeB1lz1NWFcZUDPn5GM259MnChLmnQAAVPCSne6cf2/7JFHOG44gFJMQyAL0bX+gwucEqTOTEXi3zNZJx88CaZrPUrXDVDKYIHKW1xeilF6it7CueTJ68Vig9+WsCB6T8A+0q8k/TpFLCqQiRrvrzfcSguBg0R9fVMRMufVFC/BrRyodcii3xFWUp/151MGoQse4c69QEcGQGlCsucBO5K6K55TM8hA587cFgUU6yTTcYkw9h0bNCgKIdI2Mtbd8cIsYPjB/oKof10O+mEmwoTWdRg8H/djzGPCgDdInCUkGCQOq7u0yza9PBzPyVV21iWHsgqiuw4trRqdWr8r8u5yt2tK/35uwFDxPw7AhoHa3YhvBxJ9CPvdvxz/O3DVKqS3ffwQBwqHbbg9uiNUy8TYIDL0aBleOnXRLNdGaCRb8USvp2E3tdifISyzfNC/nOPqV4x0cBUn41kO/TJAJBaIA3DQTZDFTrFfS1Kb7TqVWu/xTZlWWVTZx3F2Orje0gFf77Dgwg1oQqJBys4YJWIbJsPqNouU6PxXtVJDHe/3dEnzh350lLfWoDMD9dQ0p5I1D+hkRUbacRDp/5YAAAAAAAACfdmtewtFL81aeKkKVV3To7MQrBpv9N+84aMrIQDOJFn43cGdVL8BgDxNACPWLn0FkuKgXfAk2NlHD2hXHY1dV7Ug9JtjP/J/2MhLjOpEx+42RMGPoVbKHMe5kN20g2kRt1AQN3TYP/4mZyRJlROt6+822hr52fTnF3z71O9rPoLkEFuz7el1a9HENeioIZF0LmR9QoMsqHN/gxMxt4y7jz9D/AFSMRYxeFHHrmVv5FFbPysVOhHbPZlsOrToCiRuIvhjtnUbzr65GZaDXcfa54Y5gxIqJU69AANxYNvZWwQ3ZTk+NS3/XnnEHoggirDY0Xp3VpGeRE8Q7pYAdyA7uECIOSbiZhXB7EGvobl3kAq6kG8UFTp4c29tLuTf8yx/M8nllk4I/D3DPLtidWQBUH2k0nuHZuqb85OqOckXGiij2FM/PLf2EAh4VxPrM9IZvq1hQtKTOY1Hnsk6Qw3bEH20GLpJCNS4an9/+m3SToWdBBiRjnDy/KpY8LTlNVfJmnSyBH5gU+NFsAS01PyoK64YSKu23pUH/obdWSHgmdmo22OGG42kyYHLADGOLvL0oM6ZzAyK804s5YJp+LU4v4kJgtXxKSsBxPe/Dum5i/ZRJ+BPO0x371d7sYbeibJoPJ/KYp2WZn/g/toiyy1XGIcMC4iLKtUH1uoD/q/MdxKCUbUkWg0MyP1T6ELUR+9sDAT/nBOHnPg7GmL3xurxTMT8UkIiirOJ7ELjaz8onafGzNn5uPTBvc/NCARzTK3kjOkc+ozBKmg9ECRShO6dU7N6HW//OleCVjfXqA50ZqvLtgvp/VbQPxCkRxsszT352SEA/Aj+7+e3AAEnuK4AnPrIGZDagZ7bFzUFsAbqT/WozJnOZ6LnbMFQPJQXYsxJdKQjQxDZQXiT3m/27c/OEuEbraroQRhWb6o3AewfjP0DcMB0gyM3VTUEHu6Gut2yR8dvY6jfvEiVW09cBnJgAFn1fCeGquzIau9Y88rksnw0sgdOI2BLS6o4eSnuZ+4BW39Z0PeJhOLWzTer2ZEOPL+rvQDP9O96zXgt6Eu8N8uneWP+4XUDy7QoFGkkQBCEMcb/epBeiQYekhCQOQ7SXv/KJNLRhAaF9PmRYdqz4vjuFZV7HJZXLA96Rl+xQZ7FdlRbfrqKEIN+Df97QSlu6VQzdePcsfu79KN8r0g14IXqscVYGIZy/bGUX/iJKrcSgRdBdcFylROk/qMtr/ADsnbMXwa8tN3ov80fXIQkaCockrz3Wv7pT2Yd+KxKOmqjHTgbC6TZ7Xvk3Siwx7Vp4ZC3w6ND9aODoHCRtrIkVGyKdxshv8vwE0hiRhfQQc8vczcuzb3nLLsU6c3z3RxL3U3m4N3aSbz8Mpy/2DprxwS4uGr2euqqgfwhwBZUPSMPywnq5lLlI7sHtWVK5/xYfgtErrMWD9qc/EKoeEQNPHF8GkjLMLALKBtxL9IoLECD2gz5fXAZ3SAX0U1pui1QdEEmc6mURYF0NBMuG7yEmFVMTXY2Xo36oOv/nQtCe/FxFScvAq3D41QLJHeJUVMFrOv2osbiDVaMfBnAMtS8JDr5Mm8MNjXR/65XSy8L5MvDhPJyGzswxmc2ILL9ZnNsWmx20027ix3/v6WZY3xUMx0sv52E0TKw5e7f5bjw3myISg742coW/ZRdKWvrHnOX/MHwnL+UfUlWzD+BBXvvTRvwWxiqU4oMaocQJjTPvKJfvEWXsKhqVyFHBwE1OnjBw9duRsb3b6IIvZoQfWIYZpJwB//xbyvvKBCGMl1Nl3P4D2R/XwHZTJs9b4OSGT2a5nkQ497ahFXQFfNlJq+DPz/0OofTbYPSSQ9suI2RbSz6n3ZQ5pTHaxxEXht7hbI9GEfkltsMmlJ3qawAKq1teq979aQIx3/wSa9jEb/95Dy62+zUwOeimJN1niJTjv3oTRhElFO59wkfjM4WLlzTCUS16inwBRZQWw3Iz6Tm1k7DuoEgi0NGE7sv9gJTixUMuFthMSslfNBGUeYyHoMr3fB9r+uLj+HIkMh+vLG7XVpSIHwaNJ3dH5wVJXc/ni7MKdjTQVLo/K9ATJCtYK4mwBRtr2A/1KmsZnx92QyZ5u6NF6Bcky33SxEED9tzjzuZbUxT4zk6l3Uh92IrztsbkI5zNJ+zY14gmqjIZlzArxbaA3oU1BuO8fwUP0atSqXTN6ZI1w7K1wUv3LQi/BUcWpLKPyair14P1wZot6yoKYAEP/2s4lrm+UxKecqY16SkXfvmqbW2XhLbNqxrgspOMumAgxoAbBJvoGHyV51hTSeCMI20PWuxJrBQbXrwQh5+TKP/o3J6ylv1xzc4jtr24xUsbQpUcRbctFc79jLxDJ4Q7YGcVxhlmIlqbpEi53a5VUcabRvzZQ2dHn8cQ//u8miNC8pkEG5RZbaWY6+xjJ8/i3hdhzfyDB5b1e9T5XuVJMQJQhv6xQhoIoGHvQQa2aTqAAuPV3R7C1n7g5bfofsWbuxi3SXxZv1/M6OBBgY+4ffaey9g72866Gzs3k4Wl8VmaHftppluYj9pQWZyhXeVoOJ88ypPZGGFKKxDRWC79CEShtONt7F1u9wF31DTbHAAN3KNwISnT8mucv+4Q/wrUeiRMudadQ3EVlti6FtPSvWUEIXXw412jc3ORfSsAVLmhCa2uT1CKx8x/PveqRFV/ujIYRMXVBWocb7Oqzg5mqjm7hOd+Y93x7K4HDrF5PFG8YWsWtPYVPLy20/UVr2KMv/CeKQDm+4S6op4T6zC8xmCNxL2drQXNA2o6eCF4MlQI0Au2ydL842/sirG0EKVzmo0bbHNe0WeiJpaO2IY9AJFSFHqyQxL+50BKkk9ovU2d71gW4+isbb5w9eZ0Ga791/UKStD+E7xIxXTOiiIx4hiilmHLbGBqJjdmArvMWJ8Rrg/BLbNnibQsl72wtQQGD+kbS8fTc3WjMH1hXHO6/eOVRD8BHnbjwDXFHgc9gZ2LTOBCdUFHarMdzfZ4W032cc2eu5g1eq1GiSq9Xrb+Gvf8naEvWD4BnYWtJS1bNYMswLuiMJMCnY5jY3PatA3i7p9c8KQ9ePJyvl2BVvExFoURR+nq9xZ9fu6FWUt7x0D0cPyXi65lQWEJFrfhPVM0eYqDeDAwe8FYTUDHnVPjvR7o8/McGQJGXXOAC0NiPZsRDuhkEI+EXvqic3D1QfrJ9WtIdHp3ncwrSrH5/0xzqFqVxLJW62VF/Rog7DTt5NngduXaH5iKFHE1VM1G8ModiVp5Z5zVWVd9OkUNMyEJeNj9yjDcISUdqzpRwpfLowYqHv7pZVyDgmXsxzVYVQiKMG/ghwPwe0oSuD/+b824DBfAq1BORega36fqnbeRrpbdUQ4S9iwGJaSbNawElqcsmRxhpL6mVmmfNTM9UqLvUfTKxFntYZ54am3sZSU0+GoQFfB/9/7u909NcV5IULARjj4vdOpHgeUlkcHYbIJievKbUpNzLIHFKb14E1xUsipwLaXoQcw3jEyfUb/9Suo/sPh+qM0AljE9oEzRiRkqGbcvt1AdXp8HFyV97TMW+gV6Yk4vARYwNYZQWx486HrYeymcV5HpcgdZCUOxk/KybvKCislPQbbbI5HN+U65L+xB+S+nmh5RRgCUq7YRKR0fq7ypzKdjkQv2Otuv3mUQnD+MjlXinOsECwhx1Pyx/48HcOE+PFvq7LOeMCiV7ubNGFlVZOZ9zczHxRXL9qMWOPjsPF/nGBPGZaSkFj3VTsvaMnIT+s/ZnJFLN65gtbr8Zk/l6iiF155OZ8TXxvWCBXQy7pRZra5OwwSFqun3zWw3OUSpGj4C8t9+QA8EM09gynZwDo1bMtoFfsVManWgwTk81+UZ3w8jXZ/Mw4mS8M5Ls1W8nWLxVcTzU5w66TzmNBrksRZrhADrs123Tk78qHumXEBErfxAIeY/DvNSwmZbpksSP2EW/d6O6VrhckqxqyA4BjDJvRXLa1gRz6Xp3Ag6GoOBMOusKuUrkPM1EOqO1Eed55Foi0p9g/D/yBkO7ZarAvnP4ze+tDIL6ifzFq4I9LQFPi5GSXAsQqF9Oo7jH5ETh6Baz4ztVcWyft6135X3r7OWqtYTPxYtpIeDHo6XrbgGgwULcZV48h1r8PpI+TBUHzHBBLZh+//4NU+IsddCgME3Vt2Hm1tD8nXZ+tkiRyvUyAZp43IjAYVBqkk70hvhLV/JhmewSaE3CUcNjQz1yRaxTcvruKbfs+WbmiO9NYi34Vv4qooeqWzIAn3Vtbipw08X8vervMgfbuPAh4AWNcq36ptEnGpCf55Wnc5Zq5kQa6rF3OMM8eYUKLEPZNVVG+RkF2zxo2LIARMTBnIWzVf5NgLgu0VLBxAYP3phfbCeuH0XrKE678ZPHgD72AwOQpkiQq7NFCHEtmdpiQZYg8X1nc15sQYWpjYDeAIYaUuaOPbJqxrKAZfiLzh1HmTlDUHkeUEy50JfDgnM8JlzXM6Lp1uMaZzYNjrRPhG7Nn3L7QaxG2H6kO/RhI5xo5scRuK3TwBncesABxcFRWlCVb/scw/JO4Mc7wf04g4b5GPzZrhnEIOisF/Od/TYmjHURTqqiH3ahe6eJE94r6MqgCpOXWTaTsfQH6kCqChovnoV45NEvw0R/CeasyIy7enWtS25e1ghiMXgk4r16UKjgZ026zOpeNAoPdMgEJsQ87K9qBPtvD6H3+BBip40g+4JM9fnQEElFs+d2xvKAQTMsODU/Q3SNAS4KlvQHdd7/1scWgFCnHU0RoAoeI+cNtDz+pjNZYTfDhOXQj2BC/a+MuUvXKJGDdZX+j2Ombs0FzPs0ghiaTmDPJQSCrmPvV8YzzwJGtTf4UmwP0KEjVyJfQUnHwBUZ0v1atQ2kwPdQ/wL+jFpAWBAl6fDsIZWIuqd+ZD/LlPa33sdoR1vB1kTh7V56lkHMbL/lE5F6uBwJuXWYfq8bgJY8y328VO1yuKogzAsDtT1U05KQ0Jf8M25bejPcn/1uZHdO0V+9lvJPl7ZQ0leJSVTWDSkBFN4yvXX8K0XOVbTvaqPXgFE7EqP2dsk4CEtRO56ZQVmPS1LOa85tErjoMDZDPz0sgf/WVJ+BM6p+1aiA58shJ2dpmCOa0vP60JLx4/rSz5JVs6g3ifKl0u6Ukx6yrtQsCjF1NrIRJJ+WCXuEIrGF7F6x3BhvNSYlPmJfa7XZnpTsp26yx6CI098w0UrvgeFQw73EnV+1yf9O9xQnYLE0xhogy3LbmrmWK9beAmgewYem9hGSh4++B3Vq7PSXqX5BX9jivUev6ooB44hJchuQe9ZRdN2js0hK7AGZXf5Xdjf/NhJr3RLHxlIpeZXPGD/b3rA6TUgDkB8ze64hwbXFSzZMXBDkQuXocL7WKQ1TQ1YNdpVU7tGGHA+DmifzxcGDUIEB4ONQbwJfVx5Qa3eUPTL2ID6sdnLWJyCmRPe2uZVA9ezVuE6eRuE6zKxBcYQy1zjv+V0MaN3cY1YmyG38noyzkv8nNEXplMBekPpIZALf4QENu6n/IM6Vp2CVXvALR4dUR2eMUDvgJE9X6Qg9mRS2XslWaYnFFegCEzRQwIzF7qEiTztGyPFAHlyT/G5XwXIpl8h8p1lgnjRHObrff/qipLcNczI6EwnffH5ltDYrR7BFTTEJpx2X4NhYyL/SK/0qfF+V1yg5WYp6aUGcaFSlT4u9SpwHn7XrDSVenmXxvYSfN6cwkCHauK/zQffNK4tB6VMF9dBoKjEBi/Bmvi1Fpo7ZJ8QJjBbhgEJoPcWM+8obv9lmLLUmPJ7XAd5jdlh/pOLykYmc9wC6TL8w2/pKr0ns9vrDcGC2+Hn3tsLp/6eIBWRIIFyv2SckJIGmpB7zJeXlG2xqIZwlB5//ySKxSwo3C7b/jJ3QrwZFOld1nIPRUP4NgfqCZXUJ1DyhPw6SVe1BY75BI/zvN6WG2Ql4/vpx8v2qj6cuvry1fj9+HaO84Y/mX0we/4sKqfRkc/RF/CtSh2QhrBo3dUbq5apIyMlBOng3m73tfdDy+5mnIKUslzrfMHDyp6NT1WsUt6Dz0p1A+lb+B0o1hKh5QwNvWddHt6qTLMmAmIhe5f13au/8eV1Jc1uW+SL+urZNZ/34mOV544MaDdYCGp9Mq/cu23vOe0jHk+shDUoJV/HwVJchMqrqYfRq46jlsxVHSiDLKWVDVTjgEt2bp4/86aikXyuTld9qzvE1b841T3pnET8/LvwCZEIxvKkt3f+jmnAVBK2uteHXfmL7HMDvgaiVELkFt53Ar3iR1BeVBxPyFFIz5BUj8qntXTaORVtnYWNN/zfVguR6jP38Cjmy/XEnina1yhBtH6xCoZhvZ//+XQMWP6SWTM7OnsyU9FFncN9UrdjsCM+ytf/JObFVhXJk34+qskLOxjTLbzu9b2gv4WAYfFx0nXw/zZARfgDywoWGzvURj8Ym57c4c5OKWi0dgHYsp3IqjH9AYu9c7/zxNNHFAZ59woOVdfUEnQVGOt4Pq6KW48uZNAw9uiI5Rtqg+suQ91kvyQ8JVfpDnPZPUMmz1/DSo7lG/a2stRIMDmuSbDyD04Uv5ZfFGqmn3YERiSZZEDLCXj35cFSFURr5dvbWEhrgEI/rHqt/9HWsoqvfhZ7C7WQbkSYDXsbcpPw++djIaeJZKdPg+Znwe0y4T3ztMzMxpmfq31PH+hy9u5ft8E2urna03Cab9kZCoxcOn/oBYGxGPMF0AAAAAAAA=;" vertex="1" parent="1">
          <mxGeometry x="370" y="517" width="43.85" height="60" as="geometry" />
        </mxCell>
        <mxCell id="faqCA_aV1ih4A8_iSjF0-5" value="" style="shape=image;verticalLabelPosition=bottom;labelBackgroundColor=default;verticalAlign=top;aspect=fixed;imageAspect=0;image=data:image/gif,R0lGODdh/wFkAeYAAAAAAJsGAW4JAdEKAnYLAXsNAZ8NBLYQBYgRBZYVC6EWDtMWC54XDp8ZD6MZD6QaEasaD9UbEawdE7QeFbogF9UgFr0hGKcjG8QjGswmHNUmHNcnIdknHtcpH9gqINoqH6orItcrIuIsI8EwJ9kwJtkzKq84MNo4Lts/NbVGP9xHPUxMTk9PUd5RR1JUVrxVT1ZXWVlXWVdZW1tcXuBdU15fYl9hY8BiXGNkZmZnaWdpa+NqYWprbW5ucHJydch1cOV1bXZ2eHt8fX5/geiCe4KDhYeIis+Ig4yMjpOTleuTjJmanNidmZ6foKKipO6jnaamqKusreGyr/CyrLO0tLu7vPO+ub+/wOfEwcXFxvXJxMzMze3PzvfSztPT1PDY1/ja19vb3Pji4OTk5Ozs7Prs6vHv8e/x7+/x8fPz9Pz19Pj3+f749v///wAAAAAAAAAAAAAAAAAAAAAAAAAAAAAAAAAAAAAAAAAAAAAAAAAAAAAAAAAAAAAAAAAAAAAAACH5BAkAAG4ALAAAAAD/AWQBAAf/gG2Cg4SFhoeIiYqLjI2Oj5CRkpOUlZaXmJmam5ydnp+goaKjpKWmp6ipqqusra6vsLGys7S1tre4ubq7vL2+v8DBwsPExcbHyMnKy8zNzs/Q0dLT1NXW19jZ2tvc3d7f4OHi4+Tl5ufo6err7O3u7/Dx8vP09fb3+Pn6+/z9/v8AAwocSLBgJDVlyogB0wWMmIRsDEqcmE1hFytPlCghQgQIkB1AOBJR8mSKlS5i1FBcydIYQjBaMgKhgSJEhQg4K+jEGaECCRU0gCiZ0qWMypZIk+ISg3GmihMlSHjw0EGDhg4dPljd2iEEiRMoWuwY2uWo0rNoU4GRSeNpCA0V/7h28BAiBN2pdqta1amBBIqgJLukHUy4UxmYQE68lWv37tTHjRvTrUt169USQLSAKVO4s+dHasQ8aaH4MVXJplOrRj3Zbt0QJ1ooSfm5tm02YmIS2aFCQ08NH1QLH56a8mO9ETSo2EHkiRYxtqOftThld2+cHFhPnUu8++ThvhcoH0uUtvTzBsVMUcK7RAisqrl7n9/99fuuJ5YrscIZvX9/ZVS3QwsqlKCXBqnBd5x89CXInYKO2bUVbEAJZYVZ/2U4DxhWENECCXDFdZVwWMnFYIPHLbjacVvFVQIN+0Gn4YzrIJQbESQkd5WCc7332Add5bUjVkQSJx+ERCZ54v+D93FgFQpKoFRGRDRWGU4ZXVRHQwsoMEbVkiWisANNN/1WV5E8zlWkhDeJ9yWEpkWWlVUhhGWheVbmeQ2W6wFBWgULVBCca3mB2UEEKBAxxRMzoXDoAhF0td2D8r21wACRxrYlXMRJZp9vkf7VnBUP6WnqMwjF5GcJXBkXp5EVeLADGG0wxV6XOsI56VbJianoEzT4pt2rrT22lQcnwDjFZhie6uwwYrBH4AkkvHfVmSh+uUAHUwjyUkwtDIApcKY5WYG4GuzwxEmcKaEjVdkuOFcJKABFhBXP5gtMGaqq4IFlumbbFU4taFFIGVYoQcMJIeokYgktNFfWIGUAMYD/Bj7Ga5peIiarqIz6hjzLt8B2IB6CGg8HnwYDANFfIV1Ii8IJ+dHAHL6FqPEECtvCm7JwTkYwAJTlTSny0asgrAQQBdrFwQeu/rzxVAOo8ESz3toaknMpUUlIGTtU9aDUxP4bQgnJDgWG10i3DQpTTxDRFsPJSUr2xgzGNWsiuDX0siFsaNFCBQHfDRlcEdTZglBEYe3245Pwux5vJPCF8WuGq7idBxGUoMTfkkSLQqwnZo7XmYhrIKpzYDgO+euKRMule/cVa/rmPnvwAeE04EyJFjuwOvXtk0L22leL+w778ohY0WhlVmE1rNRw7sVXCDQ8AbIkbDzBMOF4E1/c/4EIxgbEFKAz/7hCWiwaLKQjnj79z3VZf1XNjKcPic4ogOgwgvPLHOYOBKmIrWsz6msbnxTGsGsVJ3Nj+xJX7OQc/UlCDVpgjwpAFD34eLB0AiTUv2JlwKKwLYGm4pDMSKAX7gTwZ9KzibgWsDorMGsTocmSBlmGqbswqHApY81i+pIf5hDlhCjU0EUYRZOqxCVIkRHfdjQAqRq2ThS40Q1vzvWuSYEwiA+cSog0kCzGCSaJ/0GI81QwxPhR5ouZ0wpcWvCEtamCDQGigdgoJUViSaaFyNoBf1yHRsIEaAcocM8Hv9PH1FxFNkUxChJLgUctEKFpQFSZcID0Je9wB/9I3KFX9rZXyLTwKW56DNSO4vRC013FVyLRCElKYhIraKELDXmIUQyTQd5oJTgo+qCSNLeaP3rASeJRgRktWMqC4DE3jPoQTgDYyGCea4Z1+0q9WkADm3lkJCSZwrImSQg2qAEhCVlIF7SgBSuIMyMyacFb4EgiNX3gnkUqHorYtK3F7Wcz5GwmQLIkt/6dSVL0rKa8LMNQgPXoK2Cp12wUgSV3PiEjHRnTllSggplFpVD5dBDeiPQBEehumPqcD+q64hcaSIyZAtXHWnbDpRFGz3Ykwp0Uk/Qj8jVsJz3hS09a0C1ERGtALSAQCjxqLevlZEQhTVHusALMDGAgAx7/MCk+dUofyjQVY7FhTpRi2o/DdKhLcLEKMN+IrZy+iQMlaqhch3TPemZSZUSySgRc1rzrOOx/DRXmm+Kj07xmYAIKcMAEMkBVqTbIq6f5V4g2gBmiwJSs7QjNFMKGLemFUaTy8ulc56qkwt1Vkx4Y2hSwVgYlsOqTpQOmVNXE09LmVQMYmIAEHJAAAhAgARRgLElVdFrjZexMENPeZTFrDsnJTZpD6s4iKYO4BUBKJ12hF0eTys0tcbej1HIiTq4LwHtyMmXcIZjBYAYEuASnuHhNknmBZNXcSuC+D+itAAhQgAQoFgPkmgooeTqfI8XVA8sBAtcCytxv4PEi0goB//wiY0yRBik8hPuKCrgJEo7MkpbiDPFFNZLRAXXUPaASVMY0ViTrAoFWhHiCCuKS0niR9L0dyIBVKaDbBzwAvwkogG8FIIACICABEKAAgGEbVfq48C046cBymvOc5TbYGpWMJqtWGTXUdtIDgIpAGcOpGV2qgcFtQKc6MbKRtpgsOfeBb3z0EgIlEEINRDiWwArb2BxjgMf3DXSg8yvkAgjZt/w9sgQwwGTHdpVQTaUXeUh5ZW3EzCmKaRVenKwmKg6gAwqewi3NbAk8KgQm7iQCCtCFMkd7kqoV2MEZa0WDT3N1zsNjkFb+PAHdCvrXhOavoREt7CMnQAIZEIFJT//6JjmbJnpn2zBznmDlSi+DX0/YQaZF1KMuz2cvHRDTWEuhHj+9hca3lu5jKpAo6KjBtQNwNWi3ExxgVuXPv873oIMsbEP7m9j8TcAEGK078xI4W0Ia40/uVW1rD+OZXSiZeDiwnbY2KK8daOnVVtGF9thWYFZpAb7AwLPoqsbe+rztjiXgY33nO9j+jnnMCUDk3w48Ax1EOXwN3Bi9qiBKDXe4L7DtJ6iIDZQ2fpCw1FUUVuDGeSfASZwvrqbORekJVFyxXYe7HatawNcudznMZU52YhuZAQMPMD7hJOc3gjV7MBa6MdgAhskV6CYAbExC59yVJxFBC0EPRcyCFan/dNdzKnEJCg10onU+z6XefuY1fsMudn6T/fJCrrmR/XvzkjLbi8GcjG+U83e5F4MpHqrcE43TSuk+aaIjmwINkkPxvW/sMiwsVHzsXVes7NjXP6Z82MeO+cub/cgQsABje+/sjb0GLnUOvOljAQYPKSYET7ObtzVWAczEfWQy5lTSJbg5XSnovbkFu/DXT/ziF7/fiu6ACJqsMQl5AAiznn4vqn8CQObOcPdUAURFSK4ABkBgE803RatkJETye+v3gPtWaO7nfgAXcBOQFTXmZJuDIDuwXvrHC62FAskRWeITgC+GC2WwMzc1fv8XHxpgVRPwAA4QfBDIfpY3ge+H/2j+hgAO0GoJeBxaEQId+IH7t3h204IAWBV8dQtqMAW90WpUVzxA5GcxSIM1aIMSiINl51ubl2QZMGC2Zxp1RW8veANYQIS80AUtsACO0UcmSGmywD/xIz4e9IIY8HU9ZoVX+HI3qIXDpnmcd1VZAYYCQ1vbkVtmiIa7oIZsqFAB2DsE2ArVVzmN9EFAYodfx3J6uIdAloU4SHMBxwASoHyyBYZhWDzmZVUQ8ACJqIi5wAVreF5jaDrwUQEnQATfNwtOKH6VaFtUuImc2H4UuF8IgGx0RVyGeHj5xB2H9QAKwIpn6Iq4wAUpcAAY6EWLRDZ6gQLUVgtgsAPicYosOP9YA4Zb6seJLNeHW6iDAsdYutNTwWRgg4hPGLBbCvCMrSiNtkCNBiCIzJeN1ANmGiAbVwQL5SZh4jiOaPJ4U+F1vYaOwnhoXHhkCgABGJBVAgaQBaZrumOHFCABDMAA9wiN+ngL1BgAD7BY8EGI2qh0NMRwaBYKD6YEa7gAU1dNbCdf+OSAV9h+Orh5i4YgImCKfFRgkwJ5K6cAIukADoCP0ViStHCSMygBwfV4pdWScQUx9wKHoxA4t6IXSKhQPmMoHpmHwjd2NEeMCfAAwTUiBock0pWMN0aFu8WUdumMJAmVUZkCAeAADfCMVOmOa3ckLJYkN2GLLnVApCA5GnT/KLFSO7ezdxG0kr1nh/bVcpV3aETWX/+1fAX3JucVlosEIe+VAZnojH9plzPolHq5l33JlEqpAEHJdYa3kQoyRiEQMTa0Szh0asDSf3zBRz+IWkwGJPZGW7U1iBJkX8N3gwhgkfPIkmMZl7M1RfXojKo5g0zpY6zZmrJwkj4WnjIom0uWkYbYfAY2mKqzlQkRiXxjIxkkTzvylgmJJPRXfj51n46XJMzJh4YmcMARUucnWwwYWrtSj005gzK4neKJl/nona8AnuEJmyGZkhbgj5BHUs7GI5coNDYJFB02S7VkS+xUou3kTotCYmPSAiXgodwmjjn5ZAoIVJASVBmX/0jFFUE7iQGSB2wDNxdDeZxRmCAFR193GIMNsJTiyaDh2Z0QGqF8uaTbqZQM4ABUeVVX8ZZIF4UeJHqXMgCQ0gHa1V07UKZmWqbdpFTA+aUD8JggVYgPJEdl8qJnAxYb5k28YXLESW9IyWsTcKE4h5Fbqp+4BoRTtHIPEJKJpaATyqjcmZdP6goSyqQKepcWSnBrR0wXhzu3NVqe6lALmZCaWj+AMkOxUjNiRRInIQYxowKRcloxuis6Fj++OKRfNoh0mZ2W2qAN6qSRygoS2qhSOpL31Xm5FkGvxkrQYz1/1ayApWcWFz6F8wEc4CQtEgFsapNiAU4lYUu59BBHAf8GejSHocenSHeNKGVjKdUB6cdyquljjsqr4umrv6oKwQqv8bqg99gADZCSS8aQt8pp8kI8poWcnxokYwoYlnVmi9BaWSeq8niNnLSQ6NVTL0gB42mplSqv8kqv9YoK98qrjMqksXlztVqbCqWRzWZb91GndtpdCtYFMXkIWEdjhFqgRBqWmyRbBJYkF+sAIbmxMrigHNuxkPqxqRCyHKudTNuUgKlky/eP4SOWlJJwZYKt5HWjHBYS4XQSuWQ0kjAF4YIgokqwtPVeCWKauuW078qkRWu0D4q0p6C08sq0QyuDIdkAVnpzWbpVmlqJm4O1PZFdS7W1HmYSt3RDmdD/cTeBsmIphWznkHhbpfhqt2/LsR4rt6RAt29bqap5j08LYJk6nVR7W37BYSNxUba0GbzpCdESdRlTtnczhhNrlTC4W0vZtJe7u48at5q7uVHKuyK7ndnZcn/qg8souw2yF5mxTonrEO3pnpggtm+hs4/Le6AETMypq/DavcJbtJn7u6HAubu7q/qaoP4atVM7b9oYck8gs6xggHFRe4+LhMA0X1RhmnV5j+YrtN8Lt08pvsCLkv8rso1aqQqQAApwc8KVJvZpOEmCKdkjJTOrCa0VdVD4uMmJq1WhYxYAkpQrrERbwG+bWDfABQJsCuRbwI6anXorASZbpFcJwbsC/30lJL2ZIDh1U7+dVFq9d7sJar4k/L33+ANcmcKdsML/O7La6WOK+mN/6o8nFVXDySNQFigloB/LgsOU0HEmc3A4qSQG54DOKJJE67ZD3LkoaYYVjMSWIJVpXLT+S6GJBcOC+I6h+WWF+SYSgq3dZ0DP0caPUAZEgHdgnLKPpxWIGptNTLz5GsdLeo8XwMZuTApf8AIG8MiQPLyOvJ0wjFXE5bjUaZ/Sc7ql1wlK0EA3G5Aqc08Z8JEL+q4jrMmbzJ3PeARHXMmcUAZHAAIB8Iy1LLy6ureMVorNtrIsVsPRQwLJw8WL0AWzR6vKq4wEVpofGcQaS8tLrMn3aAAKkP8CTPAFuqzCPwACThvM5TuyDZAAogio0fOWyDx++YRMYCobooYnksB/hZeBd+NBb2mZEkClTIyvwUyp8PqMIGACNyAFzjzOl8AFP2ACd4vOS+u5qskA/RrFUTvDBIpePAIoNAQjpNLQaaaCtApBI2Wet8vI3kvRnDzCCs0EuezQnsAGX8AENwACBmAALi3HFs2/wWeyGYquKD1CcPYXCgZ4kAA87qXHENylVSV5sLmojkzRDOrC7AwCC00G0kfTmFAGWHAEOe3NwNzTIqyxjAzDgDpfKPfUPfIvfhwCWpx/ikAEYOnU/YwkQAy6Fm25BW3RFQrDIwB3guzVOPQF5Xz/AVI6wlbd0p+roD9au/83zWNziXRSAh3YuoagBlagArZ2OwTKI9cJm7KMxrV81SNbpSpZp6NE0ob91ViQ04tK0GeszUPc1xn7o9d4zAIGQ2cLSHWRPRYkBiW3yoU6TJR5b3XZvQNt1ajttInlr1zXUp/z2qkQLSqQh0ALzFVt2mk8x0Abkmp9x733I3nMpfLRoWCqTP/0MtVnXTcZj+aJgTv6deFd1g3q3d9tqXwNxVc131XRE8pUR9aNRQt0SbiVicMswmZ9t00ZtFeKc402nMcKNSByKR1QQgmhBHJBPekNSkActLHM4M5tl9ENAVcaYGviGh0AKLeo1AXuCTHT/x6K5Hv2JdCyzNh/HcvFe6nkMqifZDpydBV+MRYKQ7bJ6EkOQt8J3mPDbNuQrLGKascNPLrvOBl6kSzKE+OYMOMFMkYb45C8ZcYNLqzF25SpWaxXVW+bw3weLh+I4xNLJTygZyShjMe3O578u6tQLsy6C68Q7s7K2bOncxfQRwQzzeWNgEGJkSsI9eFVcc2dXOYHzON8baX/Wldu7tvCsRdWQbrqhoo4llvOeOk9PtGb3MnZGZjpTei5gxpWMYSKbgld0F6n8Ue6d34d8MF/nuN9/r0tjMCiKIgd8DSkS9kDq7JLvrL49IIgGd2VbtbZTNoO4IV+W6jm7UNVIYQeOP/rkkDIJxAXjUdYGbnIGK3qOo7OPx3YUMuQRDnNuWabn3SJahvQuUvpzz2eZmzHootPHY1XGxOEOxDA3g4JYLCGb50aeSzGDXmk7qoAqTm0+h3llUuhVarWEi7Dxr2p1rsg5vUviJq3OS7tIwvxwBzhTLbb1MlJ94RbvlvwjcCIHS8v/j7G9gW0etvS6V7iJj6VN/eOaSJg/97Ps6Wceb7nQuzctB3eFirh9EmZTmacWvGRLw/zzxyLakKdzVZv9M6jMcjO+U7ytd3fMDxwYpiRf4uVQq87+FaXbFvb6r7Y3CneULuAY3mfgtXbH3BY4Wv1icAFL7AAs4izyE2ge0//6gsu9sQ7oaBbx8qXpWjPz29e7tfZ+MG+898tpappxwhicEVfsKCZkQja935/CNR4AFmKnDsXWuiHX6ee9Kku95M7ijg3JMmr8qPMI7JajyI+4jof5XbLvcGHARkq+UtOKT77yg/wl6Rf+oXAj5GdcuVKVfUdg+E96RMfx0I71f4dtTi28Xevk/T1daUO+z19l0y5lBgPHPCc9ilXJOb1gh+MnU15tM6vCOC5aII5sZ8HR/IICB+CHRoZGBMSDw4MDAoOD4oOj4qQlZaXmJiTkpKKCowPEhMWGBkdHh8eHasera6orK6nqqupqhoYFhOKjJOUmcDBlp2+vAyPEhSl/x2pg6vPrbGv0bO1qYS5u5+ODwoPN1ht4uPk5ebn6Onq6+zt7u/w8fLz9PX28lwpAZ8PExgaggTROiVtWrSDtAJ+wEZBG7dNkIoJm3iJmMUGDUL503BqkEFYs2Q9C9ghl4RFDTh1+kWxZcRHKh0o8Dbqn62BtHJ+NDhyIS4KiRo44tTtW7h7SJMqXcq0qdOnS/MFgAlJAoZWC6vd3KnzFbOsGgodetCr0sqILtMSjTRUI4aQCwUKRGjN1odDiWJGkpgWGMRfDhokcKAsbC1ZCLli3arqGl69aL2Bg0q5suXLmDMrlfrSkSibckV2pTaNYF2fj2XO9AWzdd+JK2M+8v9nSiGqaXYHGUIkaejf18LORnTkeWPI27h50oWG1QMu3jJVXpJ8VLP169iza6fHedOiBA+UZeAYklVBxcy/fhBREtHJ6EQtAg8WO3Yvf6XGk39GKGwGQ2Ml0IhZv82XiUXRVeVPByKAlBh6dKECliFAMeLNSxJRt92GHHbo4WVSecfJTP2UosFtWUWoGGkJ6Zaab2sZGJx3wx0jgSikYJAfgNnwxkBKMcpIn2yq9WNBbXItJNpOzFBz2DW7STDThUFaouGHWGap5ZbqcDbMI59IIop4TWbF3INM5iSQWLqcZKF8LAl5YCQ/EnXjnXhW8olQ8fElZ32MMODWeIsdNxf/VwLxd1sHFCLSTSNUCXMll5RWaml2XhK4yTaDqnemKiuCOtAsqYjFWwOQxibnkAii2siUCmAUaH1wrkqgJzbWhOQ1BR26U6KeRvnoMXv5aaVRlyar7LJNZQoYhtKJkoEzppUXajUH8ZeBBQ8kwE0kw9iqCa1ExriWsa+JWKMDxvF35nFcSZOVILjkBVmVmUzK7L789tulPn4VE18oFJgioZnmncdkR3atYkgisEKEr7jCffmSuJpS0tuUJXLUTGLwsjhqcwdvmwi0F7ukr78st8yssxYfaKEEpIxXppKfxsuwqM1kc6NqD1WMsdApEy1kfBzfSNtW2KIpsqK8ArhL/1lFo4vJyi5nrbWWMFOk0ieC4keekzn/yqI1zmEAVLF6GY3x25pAKxMkNTEsTcIruhssXnveazUwWG8t+OCYAuySfKoh85nBzoimME8EzUVIlItAihbcmM+pMUy9LM7RwYqidxx/zZTUJkwwrho44ay3TlnXQ4JLzJQO4GjTwiKX1lEsJDX6AKptVZQ5xZfXGDaZyOkd8mKjkUxhXnVS5XZaq7tu/fX3wB4chsXSLm0sTeeuHNle1dsNawUOLyP6BFrlMbUJL+/KoU1/wMFYQLd21vQUVY/9/wBsh/bUkjJPzGZX4Gua/ET1tA88hy2+MUvx1DejL23MMxYACDTepf+YFI3KLvUy199k5L8AmvCE4wjR0eIGttrhpzZYiR+ElgS6Rp1kG+oCFwUrwhqzeI826vFV+JbkLgmpQmpkSRWNMKcAA9yACyiMohTJocKheYcBAuoHmcoUulB5hXSw2JajNnauEb5tfwYMxeKaMS+m6cxJixILUCqnvyW+bSYgYEIZpshHFA7waOXSyJF2NxIvImZUI5Gjm44BmR2Oi3PHoM3nmBE6xiBKK9EQo70aaUYDGQAEP/hCH0cZwD+uKiarqV0y/rEYD9JQdxv0lFjUJoE3xQxzPdQTFsNjoq/k5HGQU9gHopSX1Vyuk54MgAmYIEpSOvN6X7iBMTMnHQj/csM4h5Kc/IroLjYu5BAQYBv/1qeplVilIzH85QK/eDds7CJ/kUqfrYD2gGWq4Zn4dJ0amGACEjmyaoxw3/tCV7aPYKsg+JNONdcnMCL5o3SjE506EenOMGVMh6ec4EpeIIV75vOjhBPDEfppAGQytFgYQQaZAoLIdL5xfrbAxumit5c/+RAUiwuir97YTZLgYqbBo2CMMmKCGzCBCx4FqVK3JgYmvAAEHFMfgoznlmWAjlTrLAgYj4gXSKBqnF6LSEoIVgqIqseL8SMJo2hpjIXuMDAZqecPpLDUug5ODVj4gQkuAFYr7oVEq5yWg4CpM9P4VG1TC5odeVjO3tSu/2BB7OK1yAalx6RSoSb12hIX8VgVEEELZWCDXUfrMjWIQQo/AME+MtZXAlqwE2MS7FZs89KRgcRUDhBQLis4HAFZxWZcjOVHbpJWx7inWOUc3iawyABJlkAFNNjBE/ZI2ur6q6kvuMBlC9RavxyIjKEYJKnsR9iuFBGmaXsnGYU2uwjSDIHVwltXiPsxVDznhlFFX3f7EpNkZMAVHNBABTTgWSsk1boIthQb2CAGJYzgZDW92H55i1Gw/VY/q+DARNEa0VZowAI3amwgFUeBEw12nRNNz+QyQIEk3ku5RKpKwQzagQosgAZTEEOCd8ylMlhBCTRAQQgoF72/ZBY4I/8qjolQZKYvXkurhmjTcGA1TdvBEGFOC2ZPnLMbT1DpVrhEkJJrw4FreCAEstBACDzbBR67uUNimAIRgkyIygJlkdI7slr0ZyGNrHRRtl3gu3wKIAo0ZAKITjQFcmQzsxIky8wr5EJsWLlvyU7PjNWhJMoSWE997NFnrkAFTqAE6r751JphAxiU0IIQiJojaJbQT9UbQanqr0ZjRhsHcSeSw9z2P8D+D3nsgpPyvoIki6JcrGI84dgNg2MTKIwvcxaLEIQgLDvQAqq3jRkwEKEE1kbO/J4RlkPk1tIYPaMIozUBwRYbxcnRifLmLVlYxKs06/EAizeJsgkCEswyaYT/JPX2ymmoOdvcTjhUyqAEFEQA1se+hkLc6eVamwtus7PTgppkb5YyMG/r3CmkSWMeNh5xbY0Ms0SiQyIgJq8aISvIiXZQHYXbPClgoMHDzxzrSDsjpnh5D3wuru4KZ1E8Y0P2xztIXMgZVKK8m5yOaplFCcJ4U9/6jInTmUAtezgDk7m52O/RhRYsYIFNB5WLHLXdiZ1Sv5sW1CrfN68NG/Lu4yM4VxFhUYw2O3ay4cYqPQXz0bSzSe0J+9gXL4+yL8CS8Cp8DNfakN/pNsLptmJvgDQogIDkU8bGO3oRaYufjDGomf/3X8DWebuNnIj0wkA4Fc/42gvQ7JAvTTRi/yoXqTvqTexT+ewYOaZlqNXJog+VNr/CEIgt2+qpP6l3MGIk4wNriLz+pjaQZfvuryMfB0jg8oSYMGewmCwXOibGRexYZLylyc1LvtN3P6/2tD9If/9uAVXjvgyft3n0Ixp34WXc530GaA75YAAZ5HEwh2KsQC0mA0/743Z/glmhwErI9oBKsnSGpBVxMQjm5hq7NU88BDSe8Q/MsYGGB2rQwEYlIXRzQ3sHOIOcIW1qVVC9lhCygFj4NU2ygXECY2EvBBAspWLwRjItSC9RJgHA411+pSfGhCOMcxMqqFUsOHHP0wtgUoAzSIP60AjvVRc4CDK14EvDxFYjhmmHQ/8MOLVFZiU+iEJ/txAlfbY50fd2ETZ3k2cazLMw1uAweFEWI8KFXWiAIcIJYTh5u3dvk6dWuPAYWph/h3NMxJBTEtJF8EJsvWYLwvJiRXcuX+U5cMF8TwZGazVGkFFChSh23WFM0QYaTKMwpPJBl8gmiWBL40IxxPALsVIcheFNTzJbjJEompRG54JLBIJTNWOGBEVjXwR0DREUqUMJqriKNtcdX/MIkGWEv8Ir6oSFIAYYZeRXZURG/jUSSRhxjWEmH9aDfaKGmtUZ4fFfE0dyEtVrjAJisNJvWyiD1lh7VbQ/3lAw+4FVozN+HgcqhABigRQunxgb/ECQu1NmBwP/P5MzR+mnKuoWeID1fq5kd15BF8DCYpxVK1dDiP/IeLATcHKHdEwGPq+HEC6CcrgoiXtWOYKkI8LmLoVQaL9nOdTEPZLQhJYIPx1ENuNFeXh2jPmCkik5divJCZ3zQugUUzG5gRznQD4DJqgnVJMANnKHaIumI2RpAdEIMZEIj9ujMc9XfLKlPEfZItdgKm7CeUx5kv74lKxoOLfCkS5UVkbJgUQENZNGS4vwLXdJPOKUON+1XhZIghmzDTnFfP+nOxFXFz/xHm3RWtWol6cWlWeRSn4mW0onmOPmgVkhNbnlLYulclPWdmRkaW41T7EhGAqgK5+jdEN0ePaGCsXY/w3T5G/B0Jme6WaguXLmuAxlcki/In4fE3u7wDZeKTHlgi+z+XbRAlkmhxOicpAiAVHmEzEapTJOWZwJZ0pxQycM8FsFGV+SB4dn5QGpUZ1eGTDCB3di0m5KR37zpzym0nd3SJ55aZ7chp7QZ02dUpGU6YC7kyiFcDopVUdq+U9hVVNx95dTmBgih5QMU5jhCB/qZyDESaAIZqAa1Qmu4kLLOHGg15+Sdoohhip2SYEUukJs8SNqhDwOYkQ86jgtOIdd1UIOqYYjSqLVZaIWgyCBkWsI02F+uGUyxXdASaM1ylCOVSLjUYRWaJny0gwPqg1A8phyUqRGOlpIyioiov80VyEC3ihfutedMOcfU4eLmlal6XJROIl0A2Ut89edXtFV3IN5tkKmZVpXVWRFxOEWD2hvRuidsqAQ34SRQ4endspYwuFYSuZ5NwiTIWmPB/NAEiicg6oAA1qoPHaoigkJnwAeNWMYx2dbueOmd3FnP5iYlYo4evEZdiN5y3M3gsABq2AqSZSRGnlHCgACR9BMprptqFqBjdVypEB357Wh4fOHwrJdl1ap4jgixDIKSNJOIIcTg2B6v7OZNqk5lWAAD/ACNbesn8mXEwpmN5oSapqllzhtDHoabPKT3kClb9UJrCeK9wp1CVQ6nQg8/mqjChAAFzBXB+aub/YFL2D/AOn3hBbaN7bjMQcTf7CUgkpoWXwSr1YKWCsVU2OoTnChlTM1o+c6ESRiAj8ARRDLbWVwBFAlsrk4gSqhq/VomcHEneRmMlRTNesHfQH3W/PGnTNUSBkAHRrZsv2jACkgBaY2s9v2BT/wABSLs4DnUChIXGdCrTkIEg/jmM8SJ0jWl/SUiMnDnE4mL/MDqtUkT3AzExTbsFhQtVbLrD+QAsDJtTkLkaBAlRU5em8KtHPBYqjog6LqWtbkQsrgAWyqIoIpX7qRhawZooDrQ45wASlwA8m6t2KHXSAQoNS0CaEIRIjHqU+Hj+rxPAaUcvyltvkJmFjmtiRXLdEway4m/5SbeyAXUFTMJLqLVwZYcAQv4AD78Lvp+TX9Wnwm5hFK27rYMpc64iOCMrd/Qyu4sp4DB7a92rExJSxelrAYYwAlBbNHpbfEe3OnhbwggL7ohozIpQgplaAmm1XLEVnPQ0f1ARsiMjNA1LMFFXnqMWs3NKVQGxxN9EkvcARH9bDtq5J9K6+2ZmR28hZ82Km446uZRAEgyhJ88b/DUTtvgQoU+X+9WrCMEp33Z2TKZQkXAEpINcEzyAZl8AU2mz//tIvbOo8aiDehJ36MAsLwASPVCV7tpiiExcS8Y37qdaALXEAV5wCglLeiZcOF2FRHcAMpoF1bW5+XxpKP1UvX9/+ePquDaRONFbcnGCEUtONnpaCIThM/UKpI/gtwzCsTFFtPoHtUWvyUeMUEfQsCfOVP9alQAryMXASHZ8M7YcSDJ5OrSqOjLcWBxZWa1ysloFA8U6wJ3AACn8sEWCDBgWyNOSwFyHsBy2unOou/roR2TIMzDgMgZmlohsZoppCUJ4uPa9JVP0jFYdYN6poCRyAFXxBap0ygavAFWEDIL7CwiCxUFUE7kHs7sTiLBuErtgCsKxZshrGcWEkyHAxTkxaN4GW6Z7SwyvQDpJzMy7ysZYBaewWc83tGlkpl/QBc10fO6khZSWIbDQO0/nwQsVi2ODSOFLSPJmDMOhbPeyv/BTdgAv1maw6pqo7Qbu35kStIvW7KQF0nxDyJAZysX+qsiw/guUxgyhC9rGrABarsxRcgv8xrqagTJlZ2Vpx6hKHhyD4qaYVZeYL4yZKCvg8AAg8sBXnb0jZsvNC8V01UsacrOxERKFrUSzyKfd2Yxs7YE5r8k8QiqMrVREf9ucf80Ex9yu870Wj7VnLjioO0qfMjf84I0Pn4TkhM1MHhuXMFz2kN0aYF00egD2FMoefSFmrayD3KseEKMs3QtCGmvY7UG+jrRErt13/91/Pct9plzdP5JT/0tdvp0/fIM0fEkHEsjkIFK0V1BO2a2bDNBqiVAiZQusL82Z4wGIVh/xhwVHAgxx9iUUuM5Mk1rUMg0NChC9vKXQ6BTchfHNVtDYSv1Qk1oakexHGlaET5iF+RctKqQ7GiPFdcwL7LXd5lINgybQCrZdHqV2md8mn1U3JOYrDZ0Fa5ODwLawCeC7rIzNLl/d9tcN7ObcjBKVWe3EKTyYCKCLdBjWe+C2OhnALuPN4AXuHpgMNiwAVOFQCFXaMxRjDTMrl9KJj7BoPFKlV2K7VHJQbkbeEuTg5OfQNQJb9S3cPEUbu7jN29RjntZ8G4lOLr6tot/uJEXg5c0MW0fQH27OGtoQC6VRM6GWxlOQGriZi3VLczMcMp8AI/8NpF/uXo8L4vQNH3HP/DEcaSnoEnPwM2ee3dR5PlEs5M/g3mdD4OpvXMhaze6FbcnFtkziujrvFPTbQPrY3MQ17niE4OzRzTz93h/4qfkq3Xzwbecb7UiX7p7qAG8yzjFSvpZ2tBmRbddQuzpYzppg4PqZxaWkuxNa6tFGq36moCR8AFYjDnp37rCPjUIEBPru5ItCPKf3zouD7s5zDIhazkfK6tnaDl7qysxP7smZ7KXWwC8tvrTIS+SH3MyZzF0N7t7sAGzgzND8DhsmntwDET+8DlpIzW3t7u8YBXMl6612nu9MENM8xRwu7u+n7hxjtS6UzvDIxHN0C1tr7vBp8OX8DoM97H1n6pDVz/T0ktswc/8dyhymNeugVepRDpDcfN3/muDmgwBl6wBSTvBWOQBkmRBmQQBiO/BV4QBmSA8hQfz06tV1El6r7uCOqL2fQwBlXQBEgwBEJvBE5QBWRwD2mwBVGQBEUg9EWQBFHgBTMP2OctBUwg4+Se7NMhzfzN8/NgBlWQBELQAzqAA2avAz4gBEiQBfUQBk5gBD7AA2aPAznAAz5gBEswBlPP1Ef+VPbs6QQYvDFb8O1ABlXgAzUwAzNQAzZg9ok/Ay4wBFsg8/AwBkvw+ItfAzhQA48vA00QBnvP1CKVAoZco8FbqvNwBULQ+HPf+nNfAz2wBfEwBk7QA5rv+q4//wNIQPmhv8xigOeNXuYtUTF87MDaTvjuEAZJcPu43/ozgANLAPruAPZCwPzNb/YyEARXwPu9f8qLPu0zzfD85QsPbwJJze5JQQZU4AMycP247wNU8A7KjwPP7/5mPwM8kATS3/0tLeATDQgXDw4PhYaHiImGJi9HWGVtkZKTlJWWkmFJPDM4nZ6foE1jl5VZPjg1oKqoOEJZpLCxsrO0tba3uLm6u7y9vr/AwcK5amVfUkcmAQYKCoSDitAOzQYGFz9SXGJqw5JeQ6vhODNIXmmzVOLhPVTn3e/w8fLz9PX29/iVYlI/KYPNCpgBHAjQwYUUP5h8obfFRyp1n2YMyf/iDlYaKJwgftIRhUy+jyBDihxJsuQ9JjdepDABouWFly9bmjCR4sUNKZDqZdmk0dMMIVXMyErjBEbPT05GmVzKtKnTp1C7FfuChcmRHzdSvrD548cRJli+lOFmb2fGnj+DDi161JOoqHDjyp1Lt6SxL1yw6NXL5YuYnPnMtk0rNBbRGG07va3LuLHjx5AhCz6atiKpw4lxLI7MubPnz6C7TUYL1PIlojIyJw3NurXr16xHa0yLZiiU1G1zQFEKu7fv38BLyoZIe1aUzDzaBV/OvLnzX8PVVZ515VTPVEFePd/Ovbv36OKKy/KCZJzGGjqMePHOvr371+DDiY9Fhor/j7PhfVDx+L6///90xbfKdLNkosN5SPAG4IIMNhiSgKrMZ9gWRsxQw0Of1DCDC0VssYaDIIYo4jsQgiLhhEkIocOFM1iIgw5CJLGFaSPWaOONsZQYUWm3jFFFEkMIEUQQQhSRRBUK4qjkkkrq6BNQtd2SxhhbXFEFFVdsMQaNTHbpZYNOdkIgLmukQQYZXH6p5prvhTkOj2zGKeeXbp445514glgnnHn26ed/e1aR5p+EFrpcoFEaquiivwU6KKOQRvqYo5JWaumkPFEG5aWcdgoXpZ6GKipJoI5qKBpnjnFmGh/2koaZqY4hKxlmPPpLmWeSMUYYvPYahqqr2lrX/6tmpOprr8DWWguiucA6K5ofvZrrrsc++6qpJIXhRBJIdIuEE1v0MgYVTiyRBLfdGoHEElWcIc8WUZibhBFF1GuvEUacmwQUWfDHWRpbQGFut/bei8S5TVQRBi2l2pIFugcnkUWr9qSRBRT6IlFwveqey29h2OZDxhVI8JDDJz0YEcXCtgAcRRQp9nCgKjwI0US4woxxRRRNGOHDzJ3YcOGFG/VgpBNUhCFsUz4KXIQPPGQ4NIY51JxEE1Rs4a8lzNYCMBRCqCIEFOvNo3O8TwONytSe6OBDEUtEgWTI9owRRQ8uuOgTJ0uEQfFpZISxBRVFyOACDBbWIDQONnii4f8MRfTLyxq6enFFE3jnfWHj6rA4Awwr4JBE1mFA+5SZY3iRxRKZJ47hKkN/zgLkUWzxK41dz2JGFkLAAAPnQeeNxBYgBzOl6k34AIPmjAOviuIaHs7DEll4MUbxdAtDRhRqr8IDEixfQkYWURjRQ9SZ+SCoLmmEQUUSQeTQfWae5JCDD0hAobVTaXjxfhAmo986iuCELCSpYbAwAxWE8LpVCEE5wdDZEoTQAwGqIgc9GAK7tpS9YVChB3qTz/TCN4kxZKEJTxuH3nJQAxfU4GTh0JArcEEGeCEBahpqoAUfdz8CKswkNYwCEoTAg8dZMEMtwoHRlpA0SeTOIlsogob/pDMDI8zIF+17HxGNeMROTNFqVDBHB7G4BSG4oC1R+JsJmxC2FjWwBj5YQhB0aKIkJCmBXohCEUAYwi4+r0U5EAL1SCgyeBlhE0n044A44YMjLcwLmSJNFRIFizE0QQf4EeFmdOGjJTgkkYqMiIV6gISkLW2MlxiDJui4ChmATxKWhKE4XJCENizhjNKJ3NLMUIWwhTJ9SSDkPaJgnV8exWheCAMIB8MnWEQxB84TRyC1o4sweNKYPTEaRVCZizD4kjI+iEIktlAyookDjvDLZIQeuLVLeEGOrMDmeXDAAyNQ0x7kOYU55RnDThThkImxkyWqgL6jqG8XXkjCgVjJ/8/FBSEKd+RmLLYQhMSkIglk8EKF1Am7vM3GB05oJyVqmAQb/I6fR9HQEOZGjxoiwQW4QalGfJcZgVYiChwVBw86gguAJcE8Mj2nC6YnOYnOwhSJscH3rpCEnHZxBj3YJCXsps+gtqUGIzTbAp1qVT+O6TJsyc1qbhFFoHY1hjUQwspOiUqkJqaH9+HnDEAa0TZoq6pnPQoPJMbWW2irogzNqwVtOgmiGCUxUpVFFowg2J40cptGJYVbG0uch4oUYKybQTQpOyAcFKEKIvXFOzcRWM4GdFOGCWtbEkuKNWh0iqb9Yw50GdlLTDa2ERrCFWgURdji9pw1CEIV/iZaxv9y9beaWl9qD7vauloiE5FEbkSSULbaUuK20h3HKymRieyex4rBgG5pvSsd1FrECcdVBWstkYYPktdEQaACJa3bBuz+VkM7NY01o6vIxWGTE+X4hSXj+V76ffU0TkAMYp1LCQqNN7aNSxB9J2Hf2F6IB00g5BicwF8L2mCz+/Sq6KrLSQ6nt8DyaSaCFdzcWRAFxaCAgQ9ITN8KmxYGGBYmQX9pRB74IAg+YKEbjdm3XdQnrjA2sHnBGtOjrHeqRmAujGXgA5xNuL7FFKznPoe4z+o4CCcOj+96kIQoUAFLWUjzlaLgBCky74hQhUJoh1KFU4S5Lf6l7IHZq1onMzj/EmRYQofpt+UhK3Kuk7wylk1btR8LIV9WlkT/fIDLI2awzEojxfh6RkQCGzgIu8UF7yrdxQefdc+VQE1mniyJLZjVjzzogQ9mzYP5CRDR862tjfmpgx4EYQj5gkIUDOhOI6zoiG6jri3IUIUb2poyexUmfZJg6p7Iz8dECpIQhHS+Uy8ZwXdWzJ/b+2r6+bhISXDCyzBmBCFA7ak+gOyEd31oTgQh3VWw3a9WdZp0DDYHKtMScWWBBioJkY8CTA5beQnmUreIB0PYFxWysIVk8soLW8gCuZBQUVAaE9WUwMyCY6HRwbZidPp+lq54NTggITIzMo50jbNszFSkLGHW/2MrecLtxVaAa861CKL5fNsTG1RR5rDwQhFYCGccBMEI/Mo5KQruhSqgsAchPrSK+cxiP8eCCgW9qtPZVbqhhOEKUPAZ0YkjBGlHlt5H5AEB93cLMjgB65lJBTuNtwUnOIR+OnDC0rYnyyMWIQpiXPYWmhC//36bz03uCavbQIXCt+WBf2Zv3795nukBXaJwp58LeoB407UsijzHgQuE4AXsYZFKUa42DlyZ+TY4eIcz4AEUStdXSVPpp6lPsXLPK2XJM/giBi7CFT5vkV0lwaMQiQFtFR36weBgCPvZxRigsMyrVvGe3aBQDu4cZ+avAQrHJnRaqVB7WYQBc1m/9f/WU+2EyGuE1WRoguxxkIMo9P65TgAOfeQTOKAfzMdN1adX4MULSpd+1+F0NPYO5GF5xKEDSMddUXZEQJEzTlBRWpdoqcVz+LcE1ZYKHRIMV2A+AfQJVaNW7TdGCdg5cwVR/0cJV+Bp51EEEfgO/YMEd5YKPCU+VNBwNXV98gYM29N9cDZ/IZdgq8ZgY0CCg5EDY/ULWQQ/tWY/GUQ9Bwh6NEdoTgdRvpAJA1heVYAP5FRu6iAEFxgJ3sQ4RYgERxhBUQBYSwiCxPeElSSFKSU6L0gLGXUFVBAFwjZxmaZoFPaFNbV3vsA9yBEFuTYPFIKD6gAF/eZxbbGA8FAfDHT/h5HYhPYHESO4f/rhelaYKwOHiIv2VEtQg5bwfFeVAwGWD/1TBKTWOUsQWmW1WZ3TCmdoNne3f08yfGBVfPd3fE4gQA/kiqq4CzEYIS5QZFg0aoOhH8zYC1EQdtKhHjQCdgbWA7tRD+QhjGLyePTXdcYXC8eRd2PXhs1IIor4gG0HDKpURIlhBG5XD901Xj9BBdhDFLwIEbKYj91QZ4Nljk0ogn/mjXnXIkaQb7z3jvHwjJ8AA6wXXuBwVT0QUiKRBgb5UXLGXU21iBCkj6ukZMS4YnoICx9pQYFUZlkQkRIpDBTpRRj2iblAUYnhAhI2EmFQThCBVcFUWBTCczMw/5T3kAZXMEcoiZOSVn8rSQpRmGcWxQk+FnHqliUyOZPOGI9BqYlY9EHVNgPiVBK9dGInKAm8JASpl0b5MAZFIH94yGRRKVlqGFAtYgNuIwTrAgUT5wVSx5UO45XqoBtdSAvbZ48G9Ysj0T8V0hOuUBFkAAVI1hbx9hF2p4TJJSyGVZeX8IbkuArOE2tEwoWpKJhcQ5iwU4CM+QvW5IAaQUpOMJu0WZu2eZu4mZu6WZvwcx0GiAknSRk5sAR/GF4ZeFpzCW6eyV7UGFQYtG0SU5zNSJHoMYvAQB6UKA46wANZqAPe+Z3gGZ7iOZ7kOZ7y450UOCC6xxsaxXSUgQPuSP8PTXCLs4GQheWEIzcUSxB83jcDLFADGvSXh6mK1AmO0ulMcQmGSdZZ0mh7CVqNBwoM/oacnImfLUYdnNdVNSADwVVmWnKNCKiazxNfAzoLvbSgH5cDSFlfGRqUe1Wiw1ByyOmUkaBq+SkLk5meXeU2RdAEVxChXph3bHiazWIfKMpjKlo2HsmUlDERIMoLhEd+THifxiiKL5gJ46dnVgk3TYSa1FkEBNlT2XikofRCs3hk1QYD+DgSa1AFWbqZa1Gl6jB5lKBRAamhFqIDS5B4M1mTRgCk7DWmZOpHZoozSZimPSkSV/CmkkSjbUAUCtkyZ3mnZ1UDygejbSWiqoD/UcJgBug3qIQKcDhjN4MWDjwJqNCBScyUkly3nPTxMKQVW5wwBLvXp5rqCTagopiaQFCgo6CaUkkaCRtWqqvAk7tKk8S6Tqx6jq7qfk4QNqFJqDOgAzJyrNjyjC/EqcHgqb76q7OhpywzrHdmrKSSrCZin08ZinMaofUBDtEaStOHiNiqq536qd4qQDXADu6QmOOKBNYKDAjEZ3IqDnSqaf7jAyvAn6EaOdN5q15Er8Zjr/caUDiwXW3Ar21xqqSiqnCaWupKsKjqkSk0NJxFDjuoaw7bCRALDGkgqBN7VSsFMnaDd0cBA4kaElXAsY26FpHqC3Y3BN3GWehBnPKa/7L8p60s67JJNTVM27RO+7RQG7VQ2yKcwIiAZh9puqYd6aZSuqxNiI7HiIRVtwR7pEKKc2rC9aSXMq9IK6FG+yI9ELfcObd0W7d2e7d4m7d6y50/ZgQF1E5LOpZAYYp1k4yC67X3CbZWKgztMzhLMEQ/MwMyYGjyVLXxmakWtbIA26JBmTJL0ARLELqiO7qkW7qme7qom7pLgDR0RwlrwDuZe7P5UFYzuhYfGw4F21OpUwXbQkFBK1MwYEdXRpGa+wviN5Z0pSuysrzM27zO+7zQG73SCyyDQrsQKhI4tYiI+5QDi7uoCgu4sisZp0c44DtlWGr6Mbwpm63/agkJ5f+eaIFhnVFylGoiOBBq0bIELKC9jipyF1oPU7IFVwIFHHcyOfSu49C2b7e+xesLlqQD9asKf8oZ4iV2K5qUqMe/PNus4kgF5lIE7qaNBjYEV2RdxKvAPqu018GGnLE9lXlMV4CZgrZ/IJe4HAzAZlJ1bYZXn5Z9JszAKNwLbfp3V/WbkOGRbJl3gpcPYTAEwkhY6XrD+GAGVGJ1bNm98tEDDbrAmRvEvVBGebdXJzsXAPOYAWVFaguIxPTE6FqjUHmjTOEjSaCZ16EDaYmymdHAY/iguXFQkaFKNLyR7WsLx4uSFYrF6vW98NCy53tOrQB+QRqLXgylmZV3wgsZa+D/BBG8CiRMpIyrwqvav+glxSMxPniTPjH8w108yKn2DfRJHOGUxh9RBRVUU9QapreSBVJ0kMnZqnAMvoETBhZnevFwN7Knr6r8VpPcC7dEaDoYGQkFh3nsf/Pwk081pU+puOuqO/4zMOdSO6xsEU0QbuxAuB3EtuFcCp1oUd8zxnHhkZi4wj78DtZEs3Ipyre7CnQaBuXjA+fDnbJGQO78C1GAyJ+wU+m8KOi8iVAQfz0xPPiwBst7jWPAWE/8UIpcCQn1bKFsu1KcUJ/kOm60VAk9CYGWz6CQHOacPSdc0hRWywZmsfFQJmYQME3gBApDBp58GVswBMGXq0EYXkiA/8Bvsr1ubNCfwGqAzHZiOAwe6dOJgcx4LMkuDZyKyc7K9i5IMAT+HLc+8GiQjJg+eEQ+EJLXCZRe1caPOsq/bNJblU0ZNgxkYMaWmcpTnRvL3AvMRoTsKDFV7T5SBAOTS7WIs1I1aMyDBVKty0lZUB5EXdQVqs0gSwolN1745Uhqa005gNKgMEPJjNdVDZxHZHRq5QXhXCZb8FMDS2X4awvRfEQmmDQ6LSU1BAV8/YGR3az1QcfSgU4/Ots9lVFJAAOyh1V3zMVULQ/tFQSbLA5GszK/4D9G0K2ME0iXy17u5UeNFEYrPVUBU7aO18v0x9lJXVcbprOJcW9h1Hv9U/8+sIkWWpzRkNLSZrOfsI0d+IbLz8W7Q3SXEWLWtgBdCmshgfQtWGLallDF8eIz4/DYw3jIzdpdqWchNWPgxFZJGucEDH7RQY3coE0PSPWubkRmtsNBrbVyD/NJYzkRPcU7CutFU+Q2SFA7vqI6O4wKjZzWRr3WSO0WdfW+oWlEgQQuFre8F7d5KxLPlNEhsswoCw2M5poZZBaTKqe8qUMF5jPaPLDEt2AGS5CdfiSe9pNXUOzGPavRSQC/inQyGXQwRgC0Y16ml/zZR6HH3fCaL+44D1ckHZMx+FIE8UO59NMENUiGDo7jVJvoh26Gud3WbrgEjFpqj8MJ23kyVEv/1FBFzTOXx3kdXj+FTRqyPDDVIjKwPOZL1ISuC2W16L9Vw9ms29mY52h1tjV3wXd9HXb+Ds/E6laFVVyek078sgOi1jb6vyEHu95aZdRntLneDUoJrb8KOdedQGcp7Oe6453p6MKqCbJ+Vjg2z5uuzKEthEk8qBqi6bugQBXE63qGzW5M3j7uTBXC7h/nh0W7yiKTjdTtXRA37bKwYW+LYmW+1md+CUMowgUGOXNI5xqRq53eDXbD3N2OUgDGp+JCmfAOYwOf7cZuCWjQ2JFOXhdijQTK7A/fDcxmXAKfe3s6DOPCQBNfssTeZ+loGF7gdzluWi0STuPu5Cbf8zlS/zIFhh1OoN89dQVFgPCD6upHrRrtVx9F8N7IpVZAvygNge8h4VppHvN+tHpFxYMJRe9WJRGtXYxO7zVhsFHSdSG61eSc4gUemFJ6WvWxoC18JPbEoVky4vbP1QSIhPeL9CIcPSBMbhzhhtB+FQVtBPiiiRj2xPeXkvZqrg4y4O71YDeAvu/ytDhWI9//nna1zPhwyAP3puFXrRG2Tgq0nBh+LCVM1WkOzU+pgEEyIpiT+cLqQEvdnZT8vHR6VoB7nw+u9az+LU9YVUq0MoRhll+0sOvnMVv+bgnjkyJgbvw6MARNLZhjMNZBaQOezRRBVDIzEAPsXgM0ZTNXcIgfYf9CbZYDgi1XeaPeZdcGGpVeF3LcsYCxEIFj4bgL7QMIWU5COjMwNTiJiouMjY44NTAzPUZRW2RtmZqbnJ2en6ChoqOkpaanqKmfWUM1No+QNT5UmKq2pmRbUUlDOTOIsMGOMzM4QUhOV2O3zJ1jgkhBOMTC1Ym/PkNLVF5pm2lUPjXAjuM9tKdeSNPB40hhzZrPUElC08XWwtRCSZa18QADChxI8NYVH+18NFlWcGCudfki8ihShYy3hrfSjKliJEdEYTWCOOn2aYwTkD2SMDSV5soQfI9qFMlCMA2ZK0V4fBQ28QqZNRiDCh1KtBQZKkKIEauhtAYPJyuLZhyjq1f/IqZKs2ptCqzHkChhwvyTesoM1SZBdI7TinVtVmA+jFARe/FTmCY92CrtESUqyyr2ts6IgcNIlroDNYahUgShW7ZY3yLiIQTsGMRkM2vefMtMliVFhATxEURIkSRU/HJGlYtKFCdJkBQZIkS0j9s+agsZUsRIkiVOolTJMna1qTFXXC9JYiR07dG3S+8uggS48C1ASW1MEjq6EN+pb6GBRvv2biRQthBNs6XK69jNn+OWztv3kihUiBvfz79/p1zuQYHfFqr5dwoZYXiRRXKuQeFgFPhVcUUWW4RxmYG3ILhFFlVQ0eCDVEi4hRcXqkJGFg0OWJwtaXjRoYMhhoHZsnpjeLFhhxA+GCGFYmHo44+apWETGRbNCGQpQiZJ5JJFJnlkRkmiwWSTaWQH5ZJCCrRGGmYQaYaRUm2pJJNoJAnmk2imqeaabLbp5ptwxinnnHTWaeedeOap55589unnn4AGKuighBZq6KGIJqrooow26uijkEYq6aSUVmrppZhmqummnHbq6aeghirqqKSWauqpqKaq6qqsturqq7DGKuustNZq66245qrrrrz26itRgQAAOw==;" vertex="1" parent="1">
          <mxGeometry x="423.93" y="520.5" width="76.07" height="53" as="geometry" />
        </mxCell>
      </root>
    </mxGraphModel>
  </diagram>
</mxfile>
